<?xml version="1.0" encoding="utf-8"?>
<!-- Generator: Adobe Illustrator 25.2.1, SVG Export Plug-In . SVG Version: 6.00 Build 0)  -->
<svg version="1.1"
	 id="svg2" xmlns:cc="http://creativecommons.org/ns#" xmlns:dc="http://purl.org/dc/elements/1.1/" xmlns:inkscape="http://www.inkscape.org/namespaces/inkscape" xmlns:rdf="http://www.w3.org/1999/02/22-rdf-syntax-ns#" xmlns:sodipodi="http://sodipodi.sourceforge.net/DTD/sodipodi-0.dtd" xmlns:svg="http://www.w3.org/2000/svg"
	 xmlns="http://www.w3.org/2000/svg" xmlns:xlink="http://www.w3.org/1999/xlink" x="0px" y="0px" width="179.9px" height="180px"
	 viewBox="0 0 179.9 180" style="enable-background:new 0 0 179.9 180;" xml:space="preserve">
<style type="text/css">
	.st0{fill:#258BDC;}
	.st1{display:none;fill:#258BDC;}
	.st2{fill:#F9F9F9;fill-opacity:0.9412;}
	.st3{display:none;opacity:0.15;fill:#FFFFFF;enable-background:new    ;}
</style>
<g id="layer1" transform="translate(0,-852.36218)">
	<path id="path6904" class="st0" d="M90,852.4c-49.7,0-90,40.3-90,90s40.3,90,90,90c0.8,0,1.5-0.1,2.2-0.1c0.3,0,0.5,0,0.8,0
		c0.9,0,1.9-0.1,2.8-0.2c0.5,0,1-0.1,1.4-0.2s0.9-0.1,1.4-0.2c2.1-0.2,4.1-0.4,6.2-0.8c3.4-0.6,6.8-1.3,10-2.3
		c5.7-1.6,11.1-3.8,16.3-6.4c18.1-9.3,32.4-24.6,40.8-43.2c0.1-0.1,0.2-0.3,0.2-0.4c1.7-3.8,3.2-7.8,4.4-11.9
		c0.7-2.4,1.2-4.9,1.7-7.3c0.2-0.8,0.4-1.6,0.6-2.4c0.3-1.9,0.4-3.9,0.6-5.8c0.2-1.8,0.5-3.6,0.5-5.4c0.1-1.1,0.2-2.2,0.2-3.4
		c0-3.7-0.3-7.2-0.7-10.8c-0.1-0.7-0.2-1.4-0.3-2.1C172.7,885.9,135.3,852.4,90,852.4z"/>
	<path id="path6013" class="st1" d="M-10-10"/>
	<path id="path6011" class="st1" d="M-10-10"/>
	<path id="path6009" class="st1" d="M-10-10"/>
</g>
<g id="layer14">
</g>
<g id="layer13">
	<path id="path6875" class="st2" d="M44.8,57.1c-1.3,0-2.5,0.3-3.4,0.8l48.7,29.2L138.6,58c-0.8-0.5-1.9-0.8-3.2-0.8L44.8,57.1
		L44.8,57.1z M41.5,62.9C40.6,63.4,40,64.2,40,65v54.8c0,1.7,2.2,3,5,3h90c2.8,0,5-1.3,5-3V65c0-0.8-0.5-1.6-1.4-2.1L90.2,92.4
		C90.2,92.4,41.5,62.9,41.5,62.9z"/>
	<path id="rect2995" class="st3" d="M89,0C39.3,0-1,40.3-1,90s40.3,90,90,90V0z"/>
</g>
</svg>
