<?xml version="1.0" encoding="utf-8"?>
<!-- Generator: Adobe Illustrator 27.0.1, SVG Export Plug-In . SVG Version: 6.00 Build 0)  -->
<svg version="1.1" id="Capa_1" xmlns="http://www.w3.org/2000/svg" xmlns:xlink="http://www.w3.org/1999/xlink" x="0px" y="0px"
	 viewBox="0 0 41.9 41.8" style="enable-background:new 0 0 41.9 41.8;" xml:space="preserve">
<style type="text/css">
	.st0{fill:#FE811E;}
	.st1{fill:#EE144F;}
	.st2{fill:#C535B9;}
	.st3{fill:#15CE3A;}
	.st4{fill:#1E9F39;}
	.st5{fill:#C835B5;}
	.st6{fill:#CD33B0;}
	.st7{fill:#CE36AB;}
	.st8{fill:#7FD5F7;}
	.st9{fill:#46CAC4;}
	.st10{fill:#4AD19A;}
	.st11{fill:#11D946;}
	.st12{fill:#12D642;}
	.st13{fill:#13D33F;}
	.st14{fill:#FE7B22;}
	.st15{fill:#14D13D;}
	.st16{fill:#BE5E19;}
	.st17{fill:#14DD4E;}
	.st18{fill:#F1204A;}
	.st19{fill:#EF1A4D;}
	.st20{fill:#B33BCC;}
	.st21{fill:#AD3DD2;}
	.st22{fill:#B73AC8;}
	.st23{fill:#C336BB;}
	.st24{fill:#C037BE;}
	.st25{fill:#BD38C1;}
	.st26{fill:#BA39C4;}
	.st27{fill:#A83ED8;}
	.st28{fill:#BF37BF;}
	.st29{fill:#BB38C4;}
	.st30{fill:#81298E;}
	.st31{fill:#F22549;}
	.st32{fill:#F22C47;}
	.st33{fill:#F33648;}
	.st34{fill:#FE881A;}
	.st35{fill:#FE8E16;}
	.st36{fill:#ED0F51;}
	.st37{fill:#EC0C53;}
	.st38{fill:#EB0654;}
	.st39{fill:#FE9114;}
	.st40{fill:#FE9512;}
	.st41{fill:#FE9911;}
	.st42{fill:#CD0948;}
	.st43{fill:#008EFD;}
	.st44{fill:#0096FC;}
	.st45{fill:#0099FC;}
	.st46{fill:#0087FE;}
	.st47{fill:#024973;}
	.st48{fill:#04A1F9;}
	.st49{fill:#BE6315;}
	.st50{fill:#CE1542;}
	.st51{fill:#CD0E45;}
	.st52{fill:#CB34B3;}
	.st53{fill:#00636B;}
	.st54{fill:#84288A;}
	.st55{fill:#01586C;}
	.st56{fill:#015E6C;}
	.st57{fill:#189F3B;}
	.st58{fill:#01506E;}
	.st59{fill:#0FDE4B;}
	.st60{fill:#BE6713;}
	.st61{fill:#F22648;}
	.st62{fill:#872787;}
	.st63{fill:#D0223E;}
	.st64{fill:#CF1B40;}
	.st65{fill:#98255F;}
	.st66{fill:#FE9312;}
	.st67{fill:#BE6C0F;}
	.st68{fill:#D53537;}
	.st69{fill:#D43138;}
	.st70{fill:#D32C3A;}
	.st71{fill:#D1273C;}
	.st72{fill:#009EFB;}
	.st73{fill:#00A6FA;}
	.st74{fill:#CE33B0;}
	.st75{fill:#006B6A;}
	.st76{fill:#00D6F4;}
	.st77{fill:#00DEF3;}
	.st78{fill:#00E6F2;}
	.st79{fill:#00BEF7;}
	.st80{fill:#00C6F6;}
	.st81{fill:#00CEF5;}
	.st82{fill:#0DE24F;}
	.st83{fill:#11A240;}
	.st84{fill:#00AEF9;}
	.st85{fill:#00B6F8;}
	.st86{fill:#F32C46;}
	.st87{fill:#D232AC;}
	.st88{fill:#8B2683;}
	.st89{fill:#F53343;}
	.st90{fill:#93237B;}
	.st91{fill:#8F2580;}
	.st92{fill:#BE720C;}
	.st93{fill:#D63C35;}
	.st94{fill:#F73F41;}
	.st95{fill:#F63841;}
	.st96{fill:#0EA644;}
	.st97{fill:#00EEF1;}
	.st98{fill:#01F7F0;}
	.st99{fill:#0DAA49;}
	.st100{fill:#0CE553;}
	.st101{fill:#0BE856;}
	.st102{fill:#D930A4;}
	.st103{fill:#0AEC5B;}
	.st104{fill:#E02E9D;}
	.st105{fill:#08F15F;}
	.st106{fill:#07F362;}
	.st107{fill:#E62C97;}
</style>
<g>
	<path class="st0" d="M17.7,0.4c0.7-0.1,1.4-0.2,2.1-0.4c0.6,0,1.2,0,1.8,0c0.2,0,0.4,0.1,0.6,0.1c3.5,2.2,7,4.4,10.5,6.6
		c0.2,0.7,0.3,1.4,0.5,2c0,0.6,0,1.3,0,1.9c0.1-0.6-0.4-0.7-0.7-0.9C27.6,6.7,22.7,3.5,17.7,0.4z"/>
	<path class="st1" d="M0,20.5c0.1-0.6,0.2-1.2,0.2-1.8c1.1-1.3,2.2-2.5,3.2-3.8c2.6-3.2,5.2-6.5,7.8-9.7c0.1,0,0.2,0,0.4,0
		c0.3,0,0.6,0.1,0.8,0.1c0,0.1,0,0.2,0,0.3C8.3,10.7,4.2,15.9,0.1,21c0,0-0.1-0.1-0.1-0.1C0,20.8,0,20.7,0,20.5z"/>
	<path class="st2" d="M19.1,41.9c-0.1,0-0.2-0.1-0.2-0.1c-0.4-0.5-0.9-1-1.2-1.5c-4.2-6.2-8.3-12.3-12.4-18.5
		c0.2-0.2,0.4-0.5,0.6-0.7c0.5,0.8,0.9,1.6,1.4,2.4c2.4,3.5,4.8,6.9,7.2,10.3c0.2,0.6,0.5,1.1,0.7,1.7c0.3,0.6,0.7,1.1,1,1.7
		c0.4,0.5,0.8,0.9,1.2,1.4c0.6,1.1,1.2,2.2,1.8,3.4C19.2,41.9,19.1,41.9,19.1,41.9z"/>
	<path class="st3" d="M39.9,12.3c1.4,2.1,1.6,4.6,2.1,7c0,1,0,1.9,0,2.9c-0.1,0.2-0.2,0.4-0.4,0.6c-0.2-0.9-0.5-1.8-0.7-2.7
		C40.6,17.4,40.2,14.8,39.9,12.3z"/>
	<path class="st4" d="M41.6,22.7c0.1-0.2,0.2-0.4,0.4-0.6c0,0,0,0.1,0,0.1c0,0.1-0.1,0.2-0.1,0.2c0,0.1,0,0.2,0,0.2
		c0,0.1,0.1,0.2,0.1,0.4c0,0.1,0,0.2,0,0.2c0,0-0.1,0.1-0.1,0.1c-0.4,0.9-0.7,1.8-1.1,2.8c-0.5,0.6-0.9,1.2-1.4,1.8
		c-0.2-0.2-0.4-0.3-0.6-0.5c0.4-0.5,0.8-1,1.2-1.4c0.3-0.4,0.6-0.9,0.8-1.3c0.1-0.2,0.2-0.5,0.4-0.7C41.3,23.6,41.5,23.1,41.6,22.7z
		"/>
	<path class="st5" d="M19.2,41.9c-0.6-1.1-1.2-2.2-1.8-3.4c0.2,0.1,0.3,0.2,0.5,0.4c0.5,0.4,1.1,0.8,1.6,1.2
		c0.3,0.6,0.5,1.2,0.8,1.8C19.9,41.9,19.6,41.9,19.2,41.9z"/>
	<path class="st6" d="M20.3,41.9c-0.3-0.6-0.5-1.2-0.8-1.8c0.6,0.2,1.2,0.5,1.8,0.7c0.1,0,0.2,0.1,0.2,0.1c0.1,0.3,0.2,0.6,0.4,1
		C21.4,41.9,20.8,41.9,20.3,41.9z"/>
	<path class="st7" d="M22,41.9c-0.1-0.3-0.2-0.6-0.4-1c1.5,0.1,3,0.2,4.4,0.4c-0.9,0.2-1.8,0.4-2.6,0.6C22.9,41.9,22.4,41.9,22,41.9
		z"/>
	<path class="st8" d="M42,23.1c0-0.1-0.1-0.2-0.1-0.4c0,0,0.1,0,0.1,0C42,22.8,42,22.9,42,23.1z"/>
	<path class="st9" d="M42,22.7c0,0-0.1,0-0.1,0c0-0.1,0-0.2,0-0.2c0,0,0.1,0,0.1,0C42,22.5,42,22.6,42,22.7z"/>
	<path class="st10" d="M42,22.5c0,0-0.1,0-0.1,0c0-0.1,0.1-0.2,0.1-0.2C42,22.3,42,22.4,42,22.5z"/>
	<path class="st11" d="M32.6,3.7c0.9,0.7,1.8,1.4,2.7,2.2c0,0.3-0.1,0.7-0.1,1c1.1,6.9,2.3,13.8,3.4,20.6c-0.5,0.4-1,0.7-1.6,1.1
		c-0.8-4.6-1.5-9.2-2.3-13.8c0-0.2,0.2-0.8-0.4-0.8c0.1-0.6,0.2-1.3,0.3-1.9c-0.1-1-0.1-2-0.2-3c-0.3-1.8-1.2-3.3-2.3-4.8
		C32.3,4.1,32.4,3.9,32.6,3.7z"/>
	<path class="st12" d="M38.6,27.5c-1.1-6.9-2.3-13.8-3.4-20.6c-0.1-0.3,0-0.6,0.1-1c0.5,0.6,1.1,1.1,1.6,1.7c1,6.2,2,12.3,3,18.5
		c-0.4,0.5-0.8,1-1.2,1.4C38.7,27.5,38.7,27.5,38.6,27.5z"/>
	<path class="st13" d="M40,26.1c-1-6.2-2-12.3-3-18.5c0.5,0.7,1,1.3,1.5,2c-0.1,0.2-0.2,0.3-0.2,0.5c0.8,4.9,1.7,9.8,2.5,14.7
		C40.5,25.2,40.2,25.6,40,26.1z"/>
	<path class="st14" d="M32.8,6.7c-3.5-2.2-7-4.4-10.5-6.6c2.3,0.2,4.5,0.5,6.6,1.7C30.6,3.1,32,4.6,32.8,6.7z"/>
	<path class="st15" d="M41.6,22.7c-0.2,0.4-0.3,0.9-0.5,1.3c-0.5-2.8-1.1-5.5-1.6-8.3c-0.3-1.7-0.4-3.5-0.6-5.2
		c0.3,0.6,0.6,1.2,0.9,1.8c0.4,2.6,0.7,5.2,1.1,7.8C41.1,20.9,41.4,21.8,41.6,22.7z"/>
	<path class="st15" d="M39,10.5c0.2,1.7,0.3,3.5,0.6,5.2c0.5,2.8,1,5.5,1.6,8.3c-0.1,0.2-0.2,0.5-0.4,0.7c-0.8-4.9-1.7-9.8-2.5-14.7
		c0-0.1,0.1-0.3,0.2-0.5C38.6,9.9,38.8,10.2,39,10.5z"/>
	<path class="st16" d="M32.8,6.7c-0.7-2.1-2.2-3.7-4-4.9C29,1.9,29.3,2,29.5,2.1c0.9,0.8,1.8,1.5,2.7,2.3c1.1,1.4,2,3,2.3,4.8
		c-0.4-0.1-0.8-0.2-1.2-0.3C33.1,8.1,32.9,7.4,32.8,6.7z"/>
	<path class="st17" d="M32.2,4.3c-0.9-0.8-1.8-1.5-2.7-2.3c1,0.5,2,1.1,3.1,1.6C32.4,3.9,32.3,4.1,32.2,4.3z"/>
	<path class="st18" d="M0.5,24.7c-0.1-0.5-0.2-1-0.2-1.6c4.6-5.8,9.3-11.7,13.9-17.5C14.6,5.8,15,5.9,15.4,6c0,0,0.1,0.1,0.1,0.1
		c-0.7,0.9-1.3,1.8-2,2.7c-2.5,3.3-5.1,6.6-7.6,9.9c-0.1,0.1-0.2,0.2-0.3,0.3c-0.4,0.5-0.9,1-1.3,1.4c-0.3,0.5-0.7,1-1,1.5
		C2.3,22.9,1.4,23.8,0.5,24.7z"/>
	<path class="st19" d="M14.2,5.7C9.5,11.5,4.9,17.3,0.3,23.2c0-0.7-0.1-1.4-0.1-2.2c4.1-5.1,8.2-10.3,12.3-15.4c0.1-0.1,0-0.2,0-0.3
		c0.4,0,0.8,0.1,1.2,0.1C13.8,5.5,14,5.6,14.2,5.7z"/>
	<path class="st20" d="M13.2,40.3c-0.7-0.3-1.4-0.7-2-1c-1.5-2.2-2.9-4.5-4.4-6.7c-1.3-1.9-2.7-3.8-4-5.6c0.1-0.5,0.2-1,0.4-1.6
		C4,26.7,5,28,5.9,29.3C8.4,33,10.8,36.6,13.2,40.3z"/>
	<path class="st21" d="M2.7,26.9c1.3,1.9,2.7,3.7,4,5.6c1.5,2.2,2.9,4.5,4.4,6.7c-1-0.7-2-1.3-3-2c-1.8-2.7-3.6-5.3-5.4-8
		C2.8,28.5,2.7,27.7,2.7,26.9z"/>
	<path class="st22" d="M13.2,40.3c-2.4-3.7-4.8-7.3-7.3-11C5,28,4,26.7,3.1,25.3c0.1-0.3,0.2-0.6,0.4-1c1.4,2.1,2.9,4.1,4.3,6.2
		c2.3,3.4,4.5,6.8,6.8,10.3C14.1,40.6,13.6,40.4,13.2,40.3z"/>
	<path class="st23" d="M5.2,21.7c4.1,6.2,8.3,12.3,12.4,18.5c0.4,0.5,0.8,1,1.2,1.5c-0.4-0.1-0.8-0.1-1.2-0.2
		c-0.8-1.3-1.7-2.6-2.5-3.9c-3.5-5.1-7-10.2-10.5-15.4C4.8,22.1,5,21.9,5.2,21.7z"/>
	<path class="st24" d="M4.7,22.3c3.5,5.1,7,10.2,10.5,15.4c0.9,1.3,1.7,2.6,2.5,3.9c-0.2,0-0.5-0.1-0.7-0.1c-2.3-3.5-4.6-7-6.9-10.4
		c-1.9-2.8-3.8-5.5-5.7-8.2C4.4,22.7,4.5,22.5,4.7,22.3z"/>
	<path class="st25" d="M16.4,41.3c-0.2,0-0.5-0.1-0.7-0.1c-1-1.6-2-3.1-3-4.7c-2.9-4.3-5.9-8.6-8.9-13c0.1-0.2,0.2-0.3,0.3-0.5
		c1.2,1.7,2.4,3.4,3.6,5.1C10.6,32.6,13.5,36.9,16.4,41.3z"/>
	<path class="st26" d="M14.5,40.8c-2.3-3.4-4.5-6.9-6.8-10.3c-1.4-2.1-2.9-4.1-4.3-6.2c0.1-0.2,0.1-0.3,0.2-0.5
		C3.8,24,3.9,24,4,24.2c3.8,5.6,7.6,11.3,11.4,16.9C15.1,41,14.8,40.9,14.5,40.8z"/>
	<path class="st27" d="M2.8,29.3c1.8,2.7,3.6,5.3,5.4,8c-1.9-1.5-3.6-3.2-4.8-5.3C3.2,31.1,3,30.2,2.8,29.3z"/>
	<path class="st28" d="M16.4,41.3c-2.9-4.4-5.8-8.8-8.7-13.1c-1.2-1.7-2.4-3.4-3.6-5.1c0,0,0,0,0,0c0.1-0.1,0.2-0.2,0.2-0.2
		c1.9,2.7,3.8,5.4,5.7,8.2c2.3,3.4,4.6,6.9,6.9,10.4C16.8,41.4,16.6,41.3,16.4,41.3z"/>
	<path class="st29" d="M15.4,41C11.6,35.4,7.8,29.8,4,24.2C3.9,24,3.8,24,3.6,23.9c0.1-0.1,0.1-0.2,0.2-0.4c3,4.3,5.9,8.6,8.9,13
		c1,1.5,2,3.1,3,4.7C15.6,41.1,15.5,41.1,15.4,41z"/>
	<path class="st30" d="M3.8,23.5c-0.1,0.1-0.1,0.2-0.2,0.4c-0.1,0.2-0.1,0.3-0.2,0.5c-0.1,0.3-0.2,0.6-0.4,1c-0.1,0.5-0.2,1-0.4,1.6
		c0,0.8,0,1.6,0,2.4C3,30.2,3.2,31.1,3.4,32c-0.2-0.4-0.4-0.7-0.6-1.1c-0.2-0.7-0.3-1.3-0.5-2c0-1.2-0.1-2.3-0.1-3.5
		c0.3-0.9,0.5-1.8,0.8-2.7c0.8-1.2,0.9-0.2,1.1,0.3c0,0,0,0,0,0C4,23.2,3.9,23.4,3.8,23.5z"/>
	<path class="st31" d="M2.9,22.7c-0.3,0.9-0.5,1.8-0.8,2.7c-0.4,0.4-0.8,0.7-1.2,1.1c-0.1-0.6-0.3-1.2-0.4-1.8
		c0.9-0.9,1.8-1.8,2.8-2.8C3.1,22.2,3,22.5,2.9,22.7z"/>
	<path class="st32" d="M0.9,26.6c0.4-0.4,0.8-0.7,1.2-1.1c0,1.2,0.1,2.3,0.1,3.5c-0.2-0.1-0.4-0.2-0.6-0.2C1.4,28,1.2,27.3,0.9,26.6
		z"/>
	<path class="st33" d="M1.7,28.7c0.2,0.1,0.4,0.2,0.6,0.2c0.2,0.7,0.3,1.3,0.5,2C2.4,30.2,2,29.4,1.7,28.7z"/>
	<path class="st34" d="M17.7,0.4c4.9,3.1,9.9,6.3,14.8,9.4c0.3,0.2,0.8,0.3,0.7,0.9c0,0.3,0,0.6,0,0.8c-0.2,0.5-0.3,1-0.5,1.4
		C26.6,9.1,20.4,5.1,14.2,1.2C15.4,0.9,16.5,0.7,17.7,0.4z"/>
	<path class="st35" d="M14.2,1.2C20.4,5.1,26.6,9.1,32.8,13c-0.1,0.3-0.2,0.6-0.3,0.8c-0.4,0.5-0.7,1-1.1,1.6
		c-2.4-1.6-4.7-3.1-7.1-4.6c-0.8-0.5-1.4-1.4-2.6-1.3c-0.3-0.4-0.6-0.9-1-1.3c-0.3-0.3-0.6-0.7-0.9-1c-0.4-0.3-0.7-0.6-1.1-0.9
		c-0.4-0.2-0.8-0.5-1.2-0.7c-0.5-0.2-1-0.5-1.6-0.7c-0.3-0.1-0.6-0.2-1-0.4c-1.1-0.8-2.2-1.5-3.2-2.3C12.6,1.9,13.4,1.5,14.2,1.2z"
		/>
	<path class="st36" d="M11.3,5.2c-2.6,3.2-5.2,6.5-7.8,9.7c-1.1,1.3-2.2,2.6-3.2,3.8c0.1-0.8,0.2-1.5,0.4-2.3c1-1.1,2.1-2.2,3-3.4
		c2-2.5,3.9-5.1,5.8-7.6C10,5.3,10.6,5.3,11.3,5.2z"/>
	<path class="st37" d="M9.4,5.4C7.4,8,5.5,10.5,3.6,13c-0.9,1.2-2,2.3-3,3.4C0.8,15.7,1,15,1.2,14.3C3.3,11.5,5.5,8.8,7.7,6
		c0.5-0.2,1-0.4,1.6-0.6C9.3,5.4,9.3,5.4,9.4,5.4z"/>
	<path class="st38" d="M7.7,6c-2.2,2.8-4.3,5.5-6.5,8.3c0.7-2.4,1.9-4.5,3.5-6.5C5.7,7.2,6.7,6.6,7.7,6z"/>
	<path class="st39" d="M11.8,2.2c1.1,0.8,2.2,1.5,3.2,2.3c-0.3,0-0.6-0.1-0.9-0.1c-0.8,0-1.5-0.1-2.3-0.1c-0.5-0.4-1-0.8-1.6-1.2
		C10.7,2.7,11.2,2.5,11.8,2.2z"/>
	<path class="st40" d="M10.2,3c0.5,0.4,1,0.8,1.6,1.2c0,0-0.1,0.1-0.1,0.1c-0.7,0.1-1.4,0.2-2.2,0.3C9.3,4.4,9.1,4.1,8.9,3.9
		C9.3,3.6,9.8,3.3,10.2,3z"/>
	<path class="st41" d="M8.9,3.9c0.2,0.3,0.4,0.5,0.6,0.8c-0.1,0-0.2,0.1-0.4,0.1c-1.2,0.7-2.4,1.4-3.6,2C6.7,5.9,7.8,4.9,8.9,3.9z"
		/>
	<path class="st42" d="M5.5,6.9c1.2-0.7,2.4-1.4,3.6-2c0,0.2,0.1,0.4,0.1,0.6C8.7,5.6,8.2,5.8,7.7,6c-1,0.6-2,1.2-3,1.8
		C5,7.5,5.2,7.2,5.5,6.9z"/>
	<path class="st43" d="M29.4,40.3c-0.9,0.3-1.8,0.5-2.7,0.8c0.2-0.2,0.3-0.5,0.5-0.7c3.6-3,7.2-6.1,10.8-9.1c0.7-0.6,1.5-1,2.2-1.5
		c-0.5,0.9-1,1.8-1.4,2.7c-1,0.8-2.1,1.5-3.1,2.4C33.5,36.5,31.5,38.4,29.4,40.3z"/>
	<path class="st44" d="M40.2,29.7c-0.7,0.5-1.5,1-2.2,1.5c-3.6,3-7.2,6.1-10.8,9.1c-0.2,0.2-0.3,0.5-0.5,0.7c-0.1,0-0.1,0-0.2,0
		C26,41,25.5,41,24.9,41c0.2-0.1,0.4-0.1,0.6-0.3c4.6-3.9,9.2-7.8,13.8-11.7c0.4-0.4,1-0.6,1.5-0.9C40.6,28.6,40.4,29.1,40.2,29.7z"
		/>
	<path class="st45" d="M40.8,28.1c-0.5,0.3-1.1,0.5-1.5,0.9c-4.6,3.9-9.2,7.8-13.8,11.7c-0.2,0.1-0.4,0.2-0.6,0.3
		c-0.1,0-0.2,0-0.3,0c2.1-1.9,4.2-3.8,6.3-5.6c1.8-1.6,3.5-3.2,5.3-4.8c1.1-0.7,2.3-1.3,3.1-2.5c0.5-0.6,0.9-1.2,1.4-1.8
		c0.2,0,0.4-0.1,0.6-0.1C41.2,26.7,41,27.4,40.8,28.1z"/>
	<path class="st46" d="M29.4,40.3c2.1-1.8,4.1-3.7,6.2-5.5c1-0.9,2.1-1.6,3.1-2.4C36.5,36,33.4,38.6,29.4,40.3z"/>
	<path class="st47" d="M24.6,40.9c0.1,0,0.2,0,0.3,0c0.5,0,1.1,0.1,1.6,0.1c-0.2,0.1-0.3,0.2-0.5,0.3c-1.5-0.1-3-0.2-4.4-0.4
		c-0.1,0-0.2-0.1-0.2-0.1c0.2-0.2,0.3-0.3,0.5-0.5c0.4,0.1,0.9,0.2,1.3,0.4C23.6,40.8,24.1,40.9,24.6,40.9z"/>
	<path class="st48" d="M41.4,26.1c-0.2,0-0.4,0.1-0.6,0.1c0.4-0.9,0.7-1.8,1.1-2.8C41.7,24.3,41.6,25.2,41.4,26.1z"/>
	<path class="st49" d="M33.2,11.5c0-0.3,0-0.6,0-0.8c0-0.6,0-1.3,0-1.9c0.4,0.1,0.8,0.2,1.2,0.3c0.1,1,0.1,2,0.2,3
		C34.2,11.9,33.7,11.7,33.2,11.5z"/>
	<path class="st50" d="M11.6,4.3c0,0,0.1-0.1,0.1-0.1c0.8,0,1.5,0.1,2.3,0.1c-0.1,0.4-0.2,0.7-0.4,1.1c-0.4,0-0.8-0.1-1.2-0.1
		c-0.3,0-0.6-0.1-0.8-0.1C11.5,4.9,12.3,4.6,11.6,4.3z"/>
	<path class="st51" d="M11.6,4.3c0.7,0.3-0.2,0.6,0,0.8c-0.1,0-0.2,0-0.4,0C10.6,5.3,10,5.3,9.4,5.4c0,0-0.1,0-0.1,0
		c0-0.2-0.1-0.4-0.1-0.6c0.1,0,0.2-0.1,0.4-0.1C10.2,4.6,10.9,4.5,11.6,4.3z"/>
	<path class="st52" d="M14.4,33.7c-2.4-3.4-4.8-6.9-7.2-10.3c-0.5-0.8-1-1.6-1.4-2.4c0,0,0,0,0,0c0.2-0.2,0.5-0.3,0.7-0.5
		c0.3,0.4,0.6,0.8,0.9,1.2c2.2,3.2,4.5,6.4,6.7,9.6c0.1,0.6,0.2,1.1,0.3,1.7C14.3,33.3,14.4,33.5,14.4,33.7z"/>
	<path class="st53" d="M14.4,33.7c0-0.2-0.1-0.5-0.1-0.7c0.7,0.7,1-2.3,1.9-0.2c0,0,0,0.1,0,0.1c0.1,0.6,0.2,1.1,0.4,1.7
		c0,0,0,0.1,0,0.1c-0.5,0.2-1,0.5-1.4,0.7C14.9,34.9,14.6,34.3,14.4,33.7z"/>
	<path class="st54" d="M2.9,22.7C3,22.5,3.1,22.2,3.3,22c0.3-0.5,0.7-1,1-1.5c0.9-1.1,1.4-1.1,1.4,0.5c0,0,0,0,0,0
		c-0.2,0.2-0.4,0.5-0.6,0.7c-0.2,0.2-0.3,0.4-0.5,0.6c-0.1,0.2-0.2,0.3-0.4,0.5c-0.1,0.1-0.2,0.2-0.2,0.2
		C3.8,22.5,3.7,21.5,2.9,22.7z"/>
	<path class="st55" d="M17.9,38.9c-0.2-0.1-0.3-0.2-0.5-0.4c-0.4-0.5-0.8-0.9-1.2-1.4c0.4-0.2,0.8-0.4,1.3-0.6
		c0.1,0.1,0.2,0.3,0.3,0.4c0.2,0.3,0.5,0.6,0.7,1c0.1,0.2,0.2,0.3,0.4,0.5C18.5,38.5,18.2,38.7,17.9,38.9z"/>
	<path class="st56" d="M17.4,36.5c-0.4,0.2-0.8,0.4-1.3,0.6c-0.3-0.6-0.7-1.1-1-1.7c0.5-0.2,1-0.5,1.4-0.7c0.2,0.4,0.3,0.7,0.5,1.1
		C17.2,36,17.3,36.3,17.4,36.5z"/>
	<path class="st57" d="M39.4,28c-0.8,1.2-2,1.8-3.1,2.5c-0.1,0-0.1,0-0.2,0c-0.3-0.4-0.6-0.7-0.9-1.1c0.1,0,0.2-0.1,0.2-0.1
		c0.6-0.2,1.1-0.5,1.7-0.7c0.5-0.4,1-0.7,1.6-1.1c0,0,0.1,0,0.1,0C39,27.7,39.2,27.8,39.4,28z"/>
	<path class="st58" d="M17.9,38.9c0.3-0.2,0.6-0.4,0.9-0.6c0.2,0.2,0.4,0.3,0.6,0.5c0.3,0.2,0.6,0.5,1,0.7c0.4,0.2,0.7,0.4,1.1,0.6
		c0.1,0.1,0.2,0.2,0.4,0.2c-0.2,0.2-0.3,0.3-0.5,0.5c-0.6-0.2-1.2-0.5-1.8-0.7C19,39.7,18.4,39.3,17.9,38.9z"/>
	<path class="st59" d="M37.1,28.6c-0.6,0.2-1.1,0.5-1.7,0.7c-0.4-2.3-0.8-4.7-1.2-7c-0.3-1.8-0.7-3.6-1.1-5.4c0.3-0.7,0.6-1.4,1-2.2
		c0.1-0.2,0.2-0.4,0.2-0.6c0.7-0.1,0.4,0.5,0.4,0.8C35.6,19.4,36.3,24,37.1,28.6z"/>
	<path class="st60" d="M34.3,14.1c-0.1,0.2-0.2,0.4-0.2,0.6c-0.5-0.3-1-0.6-1.6-0.8c0.1-0.3,0.2-0.6,0.3-0.8c0.2-0.5,0.3-1,0.5-1.4
		c0.5,0.2,0.9,0.4,1.4,0.6C34.5,12.8,34.4,13.4,34.3,14.1z"/>
	<path class="st61" d="M5.9,18.7c2.5-3.3,5.1-6.6,7.6-9.9c0.7-0.9,1.3-1.8,2-2.7c0.4,0.2,0.8,0.4,1.2,0.6c0,0,0,0.1,0,0.1
		c-2.2,2.7-4.4,5.5-6.5,8.3c-0.4,0.5-1.3,0.9-1.1,1.8C8,17.5,7,18.1,5.9,18.7z"/>
	<path class="st62" d="M5.8,21c0-1.5-0.5-1.6-1.4-0.5c0.4-0.5,0.9-1,1.3-1.4c0.4-0.3,0.9-0.6,1.3-0.8c0.9,0.4,0.4,1.1,0.4,1.7
		c0,0-0.1,0.1-0.1,0.1c-0.2,0.2-0.5,0.3-0.7,0.5C6.2,20.7,6,20.9,5.8,21z"/>
	<path class="st63" d="M16.7,6.7c-0.4-0.2-0.8-0.4-1.2-0.6c0,0-0.1-0.1-0.1-0.1c0.2-0.4,0.4-0.8,0.6-1.2c0.5,0.2,1,0.5,1.6,0.7
		C17.2,5.9,17,6.3,16.7,6.7z"/>
	<path class="st64" d="M16,4.8c-0.2,0.4-0.4,0.8-0.6,1.2c-0.4-0.1-0.8-0.2-1.2-0.4c-0.2-0.1-0.3-0.2-0.5-0.2
		c0.1-0.4,0.2-0.7,0.4-1.1c0.3,0,0.6,0.1,0.9,0.1C15.3,4.6,15.6,4.7,16,4.8z"/>
	<path class="st65" d="M7,18.3c-0.4,0.3-0.9,0.6-1.3,0.8c0.1-0.1,0.2-0.2,0.3-0.3C7,18.1,8,17.5,9.1,16.9c0.8-0.2,1.5-0.3,2.3-0.5
		c0.8,0,1.7,0.1,2.5,0.1c0,0,0,0.1,0,0.1c-0.8,0-1.7,0-2.5,0c-0.7,0.2-1.4,0.3-2.2,0.5C8.5,17.5,7.7,17.9,7,18.3z"/>
	<path class="st66" d="M21.7,9.5c1.1-0.2,1.8,0.8,2.6,1.3c2.4,1.5,4.8,3.1,7.1,4.6c-0.2,0.3-0.4,0.6-0.6,0.8
		c-0.4,0.4-0.9,0.7-1.3,1.1c-1.2-3-3.4-4.4-6.6-4.5c0,0,0,0,0,0c-0.4-1-0.8-2.1-1.2-3.1C21.7,9.6,21.7,9.5,21.7,9.5z"/>
	<path class="st67" d="M30.8,16.2c0.2-0.3,0.4-0.6,0.6-0.8c0.4-0.5,0.7-1,1.1-1.6c0.5,0.3,1,0.6,1.6,0.8c-0.3,0.7-0.6,1.4-1,2.2
		c-0.2,0.2-0.3,0.4-0.5,0.6C32,17,31.4,16.6,30.8,16.2z"/>
	<path class="st68" d="M21.7,9.5c0,0,0,0.1,0,0.1c-0.5,0.6-1,1.3-1.6,1.9c-0.2-0.4-0.3-0.8-0.5-1.2c-0.1-0.2-0.2-0.3-0.2-0.5
		c0.4-0.6,0.9-1.1,1.3-1.7C21.1,8.6,21.4,9.1,21.7,9.5z"/>
	<path class="st69" d="M20.8,8.2c-0.4,0.6-0.9,1.1-1.3,1.7c-0.2-0.2-0.3-0.5-0.5-0.7c-0.1-0.2-0.2-0.3-0.2-0.5
		c0.4-0.5,0.7-1,1.1-1.5C20.1,7.5,20.4,7.9,20.8,8.2z"/>
	<path class="st70" d="M19.8,7.2c-0.4,0.5-0.7,1-1.1,1.5c-0.2-0.2-0.5-0.5-0.7-0.7c-0.1-0.1-0.2-0.2-0.4-0.4
		c0.4-0.4,0.7-0.9,1.1-1.3C19.1,6.6,19.4,6.9,19.8,7.2z"/>
	<path class="st71" d="M18.7,6.3c-0.4,0.4-0.7,0.9-1.1,1.3c-0.3-0.2-0.6-0.5-1-0.7c0,0,0-0.1,0-0.1c0.3-0.4,0.6-0.8,0.8-1.2
		C17.9,5.8,18.3,6,18.7,6.3z"/>
	<path class="st72" d="M36,30.5c0.1,0,0.1,0,0.2,0c-1.8,1.6-3.5,3.2-5.3,4.8c-2.1,1.9-4.2,3.8-6.3,5.6c-0.5-0.1-1-0.2-1.4-0.2
		c1.5-1.4,3-2.7,4.5-4.1c2-1.8,3.9-3.5,5.9-5.3C34.4,31.1,35.2,30.8,36,30.5z"/>
	<path class="st73" d="M33.6,31.4c-2,1.8-3.9,3.5-5.9,5.3c-1.5,1.4-3,2.7-4.5,4.1c-0.4-0.1-0.9-0.2-1.3-0.4
		c-0.1-0.1-0.2-0.2-0.4-0.2c3.4-2.8,6.7-5.7,10.1-8.5c0.3,0,0.6-0.1,0.9-0.1C32.8,31.4,33.2,31.4,33.6,31.4z"/>
	<path class="st74" d="M6.5,20.5c0.2-0.2,0.5-0.3,0.7-0.5c2.2,3.2,4.5,6.5,6.7,9.7c0,0.3,0.1,0.6,0.1,0.8c0,0.2,0,0.5,0,0.7
		c-2.2-3.2-4.5-6.4-6.7-9.6C7,21.4,6.8,20.9,6.5,20.5z"/>
	<path class="st75" d="M14,31.3c0-0.2,0-0.5,0-0.7c1-0.9,1.9-1.8,2.9-2.7c-0.2,0.6-0.3,1.2-0.5,1.8c-0.1,0.7-0.2,1.4-0.3,2
		c0,0.4,0,0.7,0,1.1c-0.9-2-1.2,0.9-1.9,0.2C14.2,32.5,14.1,31.9,14,31.3z"/>
	<path class="st76" d="M17.1,35.8c-0.2-0.4-0.3-0.7-0.5-1.1c0,0,0-0.1,0-0.1c0.6-0.5,1.3-0.9,1.9-1.5c1.8-1.6,3.6-3.2,5.4-4.9
		c0.3,0.3,0.6,0.6,1,0.9C22.3,31.4,19.7,33.6,17.1,35.8z"/>
	<path class="st77" d="M23.9,28.2c-1.8,1.6-3.6,3.3-5.4,4.9c-0.6,0.5-1.3,1-1.9,1.5c-0.1-0.6-0.2-1.1-0.4-1.7
		c0.1,0.1,0.4,0.2,0.4,0.1c2.2-1.9,4.3-3.8,6.5-5.6C23.4,27.7,23.6,28,23.9,28.2z"/>
	<path class="st78" d="M23.2,27.4c-2.2,1.9-4.3,3.8-6.5,5.6c-0.1,0-0.3-0.1-0.4-0.1c0,0,0-0.1,0-0.1c0-0.4,0-0.7,0-1.1
		c2.1-1.8,4.2-3.6,6.3-5.4C22.7,26.7,22.9,27,23.2,27.4z"/>
	<path class="st79" d="M19.4,38.8c-0.2-0.2-0.4-0.3-0.6-0.5c-0.1-0.2-0.2-0.3-0.4-0.5c1.6-1.3,3.3-2.6,4.9-4
		c1.2-1.1,2.4-2.2,3.6-3.3c0.3,0.1,0.6,0.2,1,0.3c0.2,0.1,0.3,0.2,0.5,0.3C25.4,33.7,22.4,36.2,19.4,38.8z"/>
	<path class="st80" d="M26.9,30.5c-1.2,1.1-2.3,2.3-3.6,3.3c-1.6,1.4-3.2,2.7-4.9,4c-0.2-0.3-0.5-0.6-0.7-1c0.3-0.2,0.6-0.4,0.9-0.6
		c2.4-2.1,4.8-4.2,7.2-6.3C26.2,30.1,26.5,30.3,26.9,30.5z"/>
	<path class="st81" d="M25.8,29.9c-2.4,2.1-4.8,4.2-7.2,6.3c-0.3,0.2-0.6,0.4-0.9,0.6c-0.1-0.1-0.2-0.3-0.3-0.4
		c-0.1-0.2-0.2-0.5-0.3-0.7c2.6-2.2,5.2-4.4,7.8-6.6C25.2,29.4,25.5,29.7,25.8,29.9z"/>
	<path class="st82" d="M32.6,17.4c0.2-0.2,0.3-0.4,0.5-0.6c0.4,1.8,0.8,3.6,1.1,5.4c0.4,2.3,0.8,4.7,1.2,7c-0.1,0-0.2,0.1-0.2,0.1
		c-0.4,0.1-0.8,0.1-1.2,0.2c-0.3-1.8-0.6-3.7-1-5.5c-0.4-1.9-0.8-3.8-1.2-5.6C32.1,18.1,32.3,17.8,32.6,17.4z"/>
	<path class="st83" d="M34,29.7c0.4-0.1,0.8-0.1,1.2-0.2c0.3,0.4,0.6,0.7,0.9,1.1c-0.8,0.3-1.6,0.6-2.4,0.8c-0.4,0-0.8,0.1-1.2,0.1
		c-1,0.2-0.9-0.7-1-1.2c0-0.1,0.2-0.3,0.3-0.5c0.3,0,0.6,0,0.8,0C33,29.7,33.5,29.7,34,29.7z"/>
	<path class="st84" d="M31.6,31.6c-3.4,2.8-6.7,5.7-10.1,8.5c-0.4-0.2-0.7-0.4-1.1-0.6c0.8-0.7,1.7-1.3,2.5-2.1c2.3-2,4.6-4,6.8-6
		C30.4,31.5,31,31.5,31.6,31.6z"/>
	<path class="st85" d="M29.8,31.4c-2.3,2-4.5,4-6.8,6c-0.8,0.7-1.7,1.4-2.5,2.1c-0.3-0.2-0.6-0.5-1-0.7c3-2.6,5.9-5.1,8.9-7.7
		C28.8,31.2,29.3,31.3,29.8,31.4z"/>
	<path class="st86" d="M16.7,6.9c0.3,0.2,0.6,0.5,1,0.7c0.1,0.1,0.2,0.2,0.4,0.4c-0.2,0.2-0.4,0.4-0.6,0.7c-2,2.6-4,5.2-6,7.9
		c-0.8,0.2-1.5,0.3-2.3,0.5c-0.2-0.9,0.7-1.3,1.1-1.8C12.3,12.3,14.5,9.6,16.7,6.9z"/>
	<path class="st87" d="M13.9,29.8c-2.2-3.2-4.5-6.5-6.7-9.7c0,0,0.1-0.1,0.1-0.1c0.3-0.1,0.6-0.3,1-0.4c1.9,2.7,3.8,5.4,5.6,8.1
		C13.9,28.3,13.9,29.1,13.9,29.8z"/>
	<path class="st88" d="M8.3,19.6c-0.3,0.1-0.6,0.3-1,0.4c0-0.6,0.5-1.3-0.4-1.7c0.8-0.4,1.5-0.7,2.3-1.1c0,0.6,0.1,1.3,0.1,1.9
		C9,19.3,8.6,19.4,8.3,19.6z"/>
	<path class="st89" d="M15.7,13.3c-1.2,0.8-1.8,1.8-1.8,3.2c-0.8,0-1.7-0.1-2.5-0.1c2-2.6,4-5.2,6-7.9c0.2-0.2,0.4-0.4,0.6-0.7
		c0.2,0.2,0.5,0.5,0.7,0.7C18.8,8.8,18.9,9,19,9.1C17.9,10.5,16.8,11.9,15.7,13.3z"/>
	<path class="st90" d="M13.9,16.7c0,0.8,0,1.5,0,2.3c-0.6,0-1.1-0.1-1.7-0.1c-0.2,0-0.3-0.1-0.5-0.1c-0.1-0.7-0.2-1.4-0.4-2
		C12.2,16.7,13.1,16.7,13.9,16.7z"/>
	<path class="st91" d="M11.4,16.7c0.1,0.7,0.2,1.4,0.4,2c-0.6,0.1-1.2,0.2-1.8,0.3c-0.2,0-0.4,0.1-0.6,0.1c0-0.6-0.1-1.3-0.1-1.9
		C10,17,10.7,16.9,11.4,16.7z"/>
	<path class="st92" d="M29.8,20c-0.1-0.9-0.2-1.8-0.2-2.7c0.4-0.4,0.9-0.7,1.3-1.1c0.6,0.4,1.2,0.8,1.8,1.2
		c-0.3,0.4-0.6,0.7-0.9,1.1c-0.4,0.3-0.7,0.6-1.1,1C30.4,19.6,30.1,19.8,29.8,20z"/>
	<path class="st93" d="M20.2,11.5c0.5-0.6,1-1.3,1.6-1.9c0.4,1,0.8,2.1,1.2,3.1C21.9,12.5,20.4,13.5,20.2,11.5z"/>
	<path class="st94" d="M20.2,11.5c0.2,2,1.7,1,2.7,1.2c0,0,0,0,0,0c-1.9,0-3.8,0-5.7,0.1c0.8-0.8,1.7-1.7,2.5-2.5
		C19.8,10.7,20,11.1,20.2,11.5z"/>
	<path class="st95" d="M19.7,10.3c-0.8,0.8-1.7,1.7-2.5,2.5c-0.5,0.2-1,0.3-1.4,0.5c1.1-1.4,2.2-2.8,3.2-4.2
		c0.2,0.2,0.3,0.5,0.5,0.7C19.5,10,19.6,10.2,19.7,10.3z"/>
	<path class="st96" d="M29.8,31.4c-0.5-0.1-1-0.2-1.4-0.3c-0.2-0.1-0.3-0.2-0.5-0.3c-0.2-1-0.5-1.9-0.7-2.9c0.1,0,0.2,0.1,0.2,0.1
		c0.5,0.3,1,0.6,1.6,0.8c0.6,0.2,1.3,0.4,1.9,0.6c0.3,0.1,0.6,0.2,0.8,0.2c-0.1,0.2-0.3,0.4-0.3,0.5c0.2,0.5,0.1,1.3,1,1.2
		c-0.3,0-0.6,0.1-0.9,0.1C31,31.5,30.4,31.5,29.8,31.4z"/>
	<path class="st97" d="M22.4,26.3c-2.1,1.8-4.2,3.6-6.3,5.4c0.1-0.7,0.2-1.4,0.3-2c0.3-0.2,0.6-0.4,0.8-0.5c1.7-1.1,2.7-3,4.8-3.5
		C22.2,25.8,22.3,26.1,22.4,26.3z"/>
	<path class="st98" d="M22.1,25.6c-2.1,0.5-3.1,2.5-4.8,3.5c-0.3,0.2-0.6,0.4-0.8,0.5c0.2-0.6,0.3-1.2,0.5-1.8
		C18.3,26.4,19.7,24.9,22.1,25.6C22.1,25.5,22.1,25.6,22.1,25.6z"/>
	<path class="st99" d="M22.1,25.6C22.1,25.6,22.1,25.5,22.1,25.6c0.9-0.1,1.8-0.2,2.8-0.2c0.8,0.9,1.5,1.8,2.3,2.6
		c0.2,1,0.5,1.9,0.7,2.9c-0.3-0.1-0.6-0.2-1-0.3c-0.4-0.2-0.7-0.4-1.1-0.6c-0.3-0.2-0.6-0.5-1-0.7c-0.3-0.3-0.6-0.6-1-0.9
		c-0.2-0.3-0.5-0.6-0.7-0.8c-0.2-0.4-0.5-0.7-0.7-1.1C22.3,26.1,22.2,25.8,22.1,25.6z"/>
	<path class="st100" d="M30.7,19.5c0.4-0.3,0.7-0.6,1.1-1c0.4,1.9,0.8,3.8,1.2,5.6c0.4,1.8,0.6,3.7,1,5.5c-0.5,0-1,0.1-1.4,0.1
		C31.9,26.3,31.3,22.9,30.7,19.5z"/>
	<path class="st101" d="M30.7,19.5c0.6,3.4,1.2,6.9,1.8,10.3c-0.3,0-0.6,0-0.8,0c-0.3-0.1-0.6-0.2-0.8-0.2c-0.4-2.8-0.9-5.6-1.3-8.4
		c0.1-0.4,0.2-0.7,0.3-1.1C30.1,19.8,30.4,19.6,30.7,19.5z"/>
	<path class="st102" d="M9.4,19.1c0.2,0,0.4-0.1,0.6-0.1c1.3,1.9,2.6,3.8,3.9,5.7c0,1,0,1.9,0,2.9c-1.9-2.7-3.8-5.4-5.6-8.1
		C8.6,19.4,9,19.3,9.4,19.1z"/>
	<path class="st103" d="M29.5,21.1c0.4,2.8,0.9,5.6,1.3,8.4c-0.6-0.2-1.3-0.4-1.9-0.6c0.1-1.9-0.3-3.7-0.9-5.4
		C28.5,22.7,29,21.9,29.5,21.1z"/>
	<path class="st104" d="M13.9,24.7c-1.3-1.9-2.6-3.8-3.9-5.7c0.6-0.1,1.2-0.2,1.8-0.3c0.2,0,0.3,0.1,0.5,0.1
		C12.1,19,12,19,11.8,19.1c0.7,0.9,1.4,1.9,2.1,2.8C13.9,22.9,13.9,23.8,13.9,24.7z"/>
	<path class="st105" d="M28,23.5c0.6,1.8,1,3.5,0.9,5.4c-0.5-0.3-1-0.6-1.6-0.8c-0.2-1.2-0.3-2.4-0.5-3.6
		C27.3,24.2,27.7,23.8,28,23.5z"/>
	<path class="st106" d="M26.9,24.5c0.2,1.2,0.3,2.4,0.5,3.6c-0.1,0-0.2-0.1-0.2-0.1c-0.8-0.9-1.5-1.8-2.3-2.6
		C25.5,25.1,26.2,24.8,26.9,24.5z"/>
	<path class="st107" d="M13.9,22c-0.7-0.9-1.4-1.9-2.1-2.8c0.1-0.1,0.3-0.2,0.4-0.3c0.6,0,1.1,0.1,1.7,0.1C13.9,20,13.9,21,13.9,22z
		"/>
</g>
</svg>
