<?xml version="1.0" encoding="utf-8"?>
<!-- Generator: Adobe Illustrator 27.0.1, SVG Export Plug-In . SVG Version: 6.00 Build 0)  -->
<svg version="1.1" id="Capa_1" xmlns="http://www.w3.org/2000/svg" xmlns:xlink="http://www.w3.org/1999/xlink" x="0px" y="0px"
	 viewBox="0 0 41.9 41.8" style="enable-background:new 0 0 41.9 41.8;" xml:space="preserve">
<style type="text/css">
	.st0{fill-rule:evenodd;clip-rule:evenodd;fill:url(#SVGID_1_);}
	.st1{fill-rule:evenodd;clip-rule:evenodd;fill:url(#SVGID_00000040575218617246183480000010817183351232145797_);}
	.st2{fill-rule:evenodd;clip-rule:evenodd;fill:url(#SVGID_00000179648431972995061450000002179662855817472134_);}
	.st3{fill-rule:evenodd;clip-rule:evenodd;fill:url(#SVGID_00000150081783939267971650000012595347855443946923_);}
	.st4{fill-rule:evenodd;clip-rule:evenodd;fill:url(#SVGID_00000011002454830982202630000007045814595631030695_);}
	.st5{fill-rule:evenodd;clip-rule:evenodd;fill:url(#SVGID_00000176004488731440534730000012824926531494562450_);}
	
		.st6{fill-rule:evenodd;clip-rule:evenodd;fill:url(#SVGID_00000109013413910215887760000014181605818369090457_);fill-opacity:0.1;}
	.st7{opacity:0.5049;}
	.st8{fill-rule:evenodd;clip-rule:evenodd;fill:url(#SVGID_00000121992397325570666330000015112524780970738843_);}
	.st9{fill-rule:evenodd;clip-rule:evenodd;fill-opacity:0.4962;}
	.st10{opacity:0.5443;}
	.st11{fill-rule:evenodd;clip-rule:evenodd;fill:url(#SVGID_00000160904050327484579690000016856248100761573271_);}
	.st12{fill-rule:evenodd;clip-rule:evenodd;fill-opacity:0.4999;}
	.st13{opacity:0.5622;}
	.st14{fill-rule:evenodd;clip-rule:evenodd;fill:url(#SVGID_00000099659686750615906100000005163664247780265897_);}
	.st15{fill-rule:evenodd;clip-rule:evenodd;}
	.st16{opacity:0.5842;}
	.st17{fill-rule:evenodd;clip-rule:evenodd;fill:url(#SVGID_00000118357359929452500080000014240520172406692771_);}
	.st18{fill-rule:evenodd;clip-rule:evenodd;fill-opacity:0.5031;}
	.st19{opacity:0.1801;}
	.st20{fill-rule:evenodd;clip-rule:evenodd;fill:url(#SVGID_00000065765261041581974910000004678632511320905662_);}
	.st21{fill-rule:evenodd;clip-rule:evenodd;fill-opacity:0.7728;}
</style>
<g>
	<linearGradient id="SVGID_1_" gradientUnits="userSpaceOnUse" x1="22.3069" y1="19.162" x2="-0.1388" y2="18.194">
		<stop  offset="0" style="stop-color:#FF5C34"/>
		<stop  offset="1" style="stop-color:#EB0256"/>
	</linearGradient>
	<path class="st0" d="M22.8,12.7h-5.2c-2.1,0-3.8,1.6-3.8,3.6v0.3c-2.6-0.4-5.3,0.2-7.5,1.9c-4.4,3.2-5.5,9.2-2.7,13.8
		c0,0,0,0.1,0.1,0.1C3.8,32.6,3.9,32.8,4,33c-0.1-0.1-0.2-0.2-0.2-0.3c0,0,0,0,0-0.1c-0.1-0.2-0.2-0.3-0.3-0.5c0,0,0,0,0,0
		C-1.3,24.9-1.2,15.4,4,8.3c0.2-0.2,0.3-0.4,0.5-0.6c0.7-0.8,1.4-1.4,2.3-2c0.3-0.2,0.7-0.4,1-0.6C8.2,5,8.6,4.8,8.9,4.7
		c1.7-0.6,3.5-0.8,5.3-0.4c0.2,0,0.4,0.1,0.6,0.1c1.4,0.3,2.7,0.9,3.9,1.8C19.8,7,20.7,8,21.3,9c0,0,0,0,0,0c0.3,0.5,0.6,1,0.8,1.6
		c0,0,0,0,0,0c0.2,0.4,0.3,0.8,0.4,1.1C22.7,12.1,22.8,12.4,22.8,12.7z"/>
	
		<linearGradient id="SVGID_00000019639859568059568950000011743231259274915733_" gradientUnits="userSpaceOnUse" x1="7.5672" y1="17.7744" x2="18.6257" y2="43.861">
		<stop  offset="0" style="stop-color:#A63FDB"/>
		<stop  offset="1" style="stop-color:#FF257E"/>
	</linearGradient>
	<path style="fill-rule:evenodd;clip-rule:evenodd;fill:url(#SVGID_00000019639859568059568950000011743231259274915733_);" d="
		M27.6,40.8c-6.6,2.1-14.2,0.9-20-4c-1.2-1-2.3-2.2-3.2-3.4l-0.3-0.3c0,0,0,0,0-0.1c-0.1-0.2-0.3-0.4-0.4-0.6c0,0,0-0.1-0.1-0.1
		c-2.8-4.6-1.7-10.6,2.7-13.8c2.2-1.6,5-2.2,7.5-1.9v13.9l0.1-0.1l0,0c0,1.2,0.2,2.4,0.6,3.7c0.8,2.4,2.5,4.3,4.5,5.6
		c0.2,0.1,0.5,0.3,0.7,0.4C22.1,41.3,24.9,41.6,27.6,40.8z"/>
	
		<linearGradient id="SVGID_00000022524754643064988080000001044194041600700832_" gradientUnits="userSpaceOnUse" x1="27.8991" y1="40.6338" x2="27.9205" y2="40.6844">
		<stop  offset="0" style="stop-color:#A63FDB"/>
		<stop  offset="1" style="stop-color:#FF257E"/>
	</linearGradient>
	<path style="fill-rule:evenodd;clip-rule:evenodd;fill:url(#SVGID_00000022524754643064988080000001044194041600700832_);" d="
		M28.2,40.6l-0.4,0.1c-0.1,0-0.2,0.1-0.3,0.1C27.8,40.7,28,40.6,28.2,40.6z"/>
	
		<linearGradient id="SVGID_00000085221301381568649960000005589304903117221031_" gradientUnits="userSpaceOnUse" x1="18.2299" y1="34.2292" x2="42.7447" y2="28.831">
		<stop  offset="0" style="stop-color:#00FFF0"/>
		<stop  offset="1" style="stop-color:#0087FF"/>
	</linearGradient>
	<path style="fill-rule:evenodd;clip-rule:evenodd;fill:url(#SVGID_00000085221301381568649960000005589304903117221031_);" d="
		M41.9,21.6c-0.1,4.5-1.7,9.1-4.8,12.8c-2.4,2.9-5.5,5-8.8,6.1l-0.4,0.1c-0.1,0-0.2,0.1-0.3,0.1c-2.7,0.8-5.5,0.5-7.8-0.7
		c-0.2-0.1-0.5-0.2-0.7-0.4c-2-1.2-3.7-3.2-4.5-5.6c-0.4-1.2-0.6-2.5-0.6-3.7l3.1-3l2.3-2.2H22c1.7,3.5,5.3,6,9.5,6
		c0.4,0,0.8,0,1.1-0.1c0.3,0,0.6-0.1,0.9-0.1C38.1,30.3,41.6,26.4,41.9,21.6z"/>
	
		<linearGradient id="SVGID_00000100351441247218521980000010613148232208047033_" gradientUnits="userSpaceOnUse" x1="41.2744" y1="29.4424" x2="20.8435" y2="7.6354">
		<stop  offset="0" style="stop-color:#17C934"/>
		<stop  offset="1" style="stop-color:#03FF6E"/>
	</linearGradient>
	<path style="fill-rule:evenodd;clip-rule:evenodd;fill:url(#SVGID_00000100351441247218521980000010613148232208047033_);" d="
		M41.9,20.9V21c0,0.2,0,0.4,0,0.6c-0.2,4.8-3.8,8.7-8.4,9.6c-0.3,0.1-0.6,0.1-0.9,0.1c-0.4,0-0.8,0.1-1.1,0.1c-4.2,0-7.8-2.5-9.5-6
		h1.1c0.5,0,1.1-0.1,1.6-0.2c2.6-0.6,4.5-2.7,4.9-5.2c2.1-1.2,3.7-3.2,4.5-5.7c0.1-0.3,0.2-0.5,0.2-0.8c0.5-2.2,0.3-4.4-0.5-6.4
		c-0.1-0.2-0.2-0.5-0.3-0.8c-0.5-1-1.1-1.9-1.9-2.6c-1.2-1.2-2.6-2.1-4.3-2.7c2.5,0.8,4.9,2.1,7,3.9C39.2,9.1,41.8,15,41.9,20.9z"/>
	<g>
		
			<linearGradient id="SVGID_00000172437889248920023680000002973644783249055146_" gradientUnits="userSpaceOnUse" x1="21.7455" y1="-2.6877" x2="17.9963" y2="18.8964">
			<stop  offset="0" style="stop-color:#FFB000"/>
			<stop  offset="1" style="stop-color:#FF7725"/>
		</linearGradient>
		<path style="fill-rule:evenodd;clip-rule:evenodd;fill:url(#SVGID_00000172437889248920023680000002973644783249055146_);" d="
			M34.3,13.5c-0.1,0.3-0.1,0.5-0.2,0.8c-0.8,2.5-2.4,4.4-4.5,5.7c0-0.3,0.1-0.6,0.1-0.9c0-0.6-0.1-1.2-0.3-1.8
			c-0.8-2.6-3.3-4.5-6.3-4.5h-0.3c-0.1-0.3-0.1-0.7-0.2-1c-0.1-0.4-0.2-0.8-0.4-1.1c0,0,0,0,0,0C22,10,21.7,9.5,21.3,9c0,0,0,0,0,0
			c-0.7-1-1.5-2-2.5-2.7c-1.1-0.9-2.4-1.5-3.7-1.8c0,0,0,0-0.1,0C13,3.9,10.9,4,8.9,4.7C8.6,4.8,8.2,5,7.9,5.2
			c-0.4,0.2-0.7,0.4-1,0.6C6,6.3,5.2,6.9,4.6,7.7c0.1-0.1,0.2-0.2,0.3-0.3c5.5-6.6,14.2-8.8,22-6.5L27.2,1l0.1,0
			c1.7,0.5,3.1,1.5,4.3,2.7c0.8,0.8,1.4,1.7,1.9,2.6c0.1,0.2,0.2,0.5,0.3,0.8C34.6,9.1,34.8,11.3,34.3,13.5z"/>
		
			<linearGradient id="SVGID_00000066491891127137586660000005202255589507402887_" gradientUnits="userSpaceOnUse" x1="21.7455" y1="-2.6877" x2="17.9963" y2="18.8964">
			<stop  offset="0" style="stop-color:#FFB000"/>
			<stop  offset="1" style="stop-color:#FF7725"/>
		</linearGradient>
		
			<path style="fill-rule:evenodd;clip-rule:evenodd;fill:url(#SVGID_00000066491891127137586660000005202255589507402887_);fill-opacity:0.1;" d="
			M34.3,13.5c-0.1,0.3-0.1,0.5-0.2,0.8c-0.8,2.5-2.4,4.4-4.5,5.7c0-0.3,0.1-0.6,0.1-0.9c0-0.6-0.1-1.2-0.3-1.8
			c-0.8-2.6-3.3-4.5-6.3-4.5h-0.3c-0.1-0.3-0.1-0.7-0.2-1c-0.1-0.4-0.2-0.8-0.4-1.1c0,0,0,0,0,0C22,10,21.7,9.5,21.3,9c0,0,0,0,0,0
			c-0.7-1-1.5-2-2.5-2.7c-1.1-0.9-2.4-1.5-3.7-1.8c0,0,0,0-0.1,0C13,3.9,10.9,4,8.9,4.7C8.6,4.8,8.2,5,7.9,5.2
			c-0.4,0.2-0.7,0.4-1,0.6C6,6.3,5.2,6.9,4.6,7.7c0.1-0.1,0.2-0.2,0.3-0.3c5.5-6.6,14.2-8.8,22-6.5L27.2,1l0.1,0
			c1.7,0.5,3.1,1.5,4.3,2.7c0.8,0.8,1.4,1.7,1.9,2.6c0.1,0.2,0.2,0.5,0.3,0.8C34.6,9.1,34.8,11.3,34.3,13.5z"/>
	</g>
	<g class="st7">
		
			<linearGradient id="SVGID_00000049220755437770957180000004519037915729023421_" gradientUnits="userSpaceOnUse" x1="32.0242" y1="-5.139448e-02" x2="28.6373" y2="19.4469">
			<stop  offset="0" style="stop-color:#FFB000"/>
			<stop  offset="1" style="stop-color:#FF7725"/>
		</linearGradient>
		<path style="fill-rule:evenodd;clip-rule:evenodd;fill:url(#SVGID_00000049220755437770957180000004519037915729023421_);" d="
			M34.3,13.5c-0.1,0.3-0.1,0.5-0.2,0.8c-0.8,2.5-2.4,4.4-4.5,5.7c0-0.3,0.1-0.6,0.1-0.9c0-0.6-0.1-1.2-0.3-1.8
			c0.6-0.4,1.2-1,1.7-1.6c3.3-3.9,2.7-9.7-1.2-13C29,1.9,28.1,1.4,27.2,1l0.1,0c1.7,0.5,3.1,1.5,4.3,2.7c0.8,0.8,1.4,1.7,1.9,2.6
			c0.1,0.2,0.2,0.5,0.3,0.8C34.6,9.1,34.8,11.3,34.3,13.5z"/>
		<path class="st9" d="M34.3,13.5c-0.1,0.3-0.1,0.5-0.2,0.8c-0.8,2.5-2.4,4.4-4.5,5.7c0-0.3,0.1-0.6,0.1-0.9c0-0.6-0.1-1.2-0.3-1.8
			c0.6-0.4,1.2-1,1.7-1.6c3.3-3.9,2.7-9.7-1.2-13C29,1.9,28.1,1.4,27.2,1l0.1,0c1.7,0.5,3.1,1.5,4.3,2.7c0.8,0.8,1.4,1.7,1.9,2.6
			c0.1,0.2,0.2,0.5,0.3,0.8C34.6,9.1,34.8,11.3,34.3,13.5z"/>
	</g>
	<g transform="rotate(72 37.056 20.179)" class="st10">
		
			<linearGradient id="SVGID_00000153666233600978258870000005732766531070975918_" gradientUnits="userSpaceOnUse" x1="35.0637" y1="51.3069" x2="74.7831" y2="48.8716">
			<stop  offset="0" style="stop-color:#9EE85D"/>
			<stop  offset="1" style="stop-color:#0ED061"/>
		</linearGradient>
		<path style="fill-rule:evenodd;clip-rule:evenodd;fill:url(#SVGID_00000153666233600978258870000005732766531070975918_);" d="
			M39,15.8l0.2,0.1C44,17.4,47,22.2,46.4,27c0,0.3-0.1,0.6-0.1,0.9c-0.1,0.4-0.2,0.8-0.3,1.2c-1.3,4-4.7,6.7-8.7,7.1l0.4-1.1
			c0.2-0.5,0.3-1,0.3-1.6c1.9-0.4,3.7-1.4,5-3c3.3-3.9,2.7-9.7-1.2-13C40.9,16.7,40,16.2,39,15.8z"/>
		<path class="st12" d="M39,15.8l0.2,0.1C44,17.4,47,22.2,46.4,27c0,0.3-0.1,0.6-0.1,0.9c-0.1,0.4-0.2,0.8-0.3,1.2
			c-1.3,4-4.7,6.7-8.7,7.1l0.4-1.1c0.2-0.5,0.3-1,0.3-1.6c1.9-0.4,3.7-1.4,5-3c3.3-3.9,2.7-9.7-1.2-13C40.9,16.7,40,16.2,39,15.8z"
			/>
	</g>
	<g transform="rotate(143 33.811 33.641)" class="st13">
		
			<linearGradient id="SVGID_00000019669574138117578970000012028390906063558799_" gradientUnits="userSpaceOnUse" x1="39.0351" y1="43.7906" x2="34.5225" y2="31.806">
			<stop  offset="0" style="stop-color:#21EFE3"/>
			<stop  offset="1" style="stop-color:#2598FF"/>
		</linearGradient>
		<path style="fill-rule:evenodd;clip-rule:evenodd;fill:url(#SVGID_00000019669574138117578970000012028390906063558799_);" d="
			M42.6,31.6l0.2,0.1c2.8,0.9,4.9,2.9,6.2,5.3c0.1,0.2,0.2,0.5,0.3,0.7c0.9,2.2,1.1,4.8,0.3,7.2c-0.4,1.2-1,2.3-1.7,3.3l0,0
			l-4.2,0.5c1.1-0.5,2.2-1.3,3-2.4c3.3-3.9,2.7-9.7-1.2-13.1C44.5,32.5,43.6,32,42.6,31.6z"/>
		<path class="st15" d="M42.6,31.6l0.2,0.1c2.8,0.9,4.9,2.9,6.2,5.3c0.1,0.2,0.2,0.5,0.3,0.7c0.9,2.2,1.1,4.8,0.3,7.2
			c-0.4,1.2-1,2.3-1.7,3.3l0,0l-4.2,0.5c1.1-0.5,2.2-1.3,3-2.4c3.3-3.9,2.7-9.7-1.2-13.1C44.5,32.5,43.6,32,42.6,31.6z"/>
	</g>
	<g transform="rotate(217 19.33 34.673)" class="st16">
		
			<linearGradient id="SVGID_00000083795951182530295280000004895936213396699813_" gradientUnits="userSpaceOnUse" x1="29.9855" y1="38.6587" x2="7.8586" y2="40.5385">
			<stop  offset="0" style="stop-color:#A63FDB"/>
			<stop  offset="1" style="stop-color:#FF257E"/>
		</linearGradient>
		<path style="fill-rule:evenodd;clip-rule:evenodd;fill:url(#SVGID_00000083795951182530295280000004895936213396699813_);" d="
			M34.7,45.9l-1.5-2c1.3-0.5,2.4-1.4,3.4-2.5c3.3-3.9,2.7-9.7-1.2-13c-0.6-0.5-1.3-1-2-1.3c0,0-0.1,0-0.1-0.1
			c-0.1,0-0.2-0.1-0.2-0.1c0,0,0,0-0.1,0c-0.1-0.1-0.2-0.1-0.3-0.1l0.2,0.1c0.3,0.1,0.5,0.2,0.8,0.3c0,0,0,0,0,0
			c5,2.1,7.6,7.7,6,12.9C38.7,42.6,36.9,44.7,34.7,45.9z"/>
		<path class="st18" d="M34.7,45.9l-1.5-2c1.3-0.5,2.4-1.4,3.4-2.5c3.3-3.9,2.7-9.7-1.2-13c-0.6-0.5-1.3-1-2-1.3c0,0-0.1,0-0.1-0.1
			c-0.1,0-0.2-0.1-0.2-0.1c0,0,0,0-0.1,0c-0.1-0.1-0.2-0.1-0.3-0.1l0.2,0.1c0.3,0.1,0.5,0.2,0.8,0.3c0,0,0,0,0,0
			c5,2.1,7.6,7.7,6,12.9C38.7,42.6,36.9,44.7,34.7,45.9z"/>
	</g>
	<g transform="rotate(-71 14.222 21.606)" class="st19">
		
			<linearGradient id="SVGID_00000049203429942674364100000016556226853604266630_" gradientUnits="userSpaceOnUse" x1="29.2718" y1="25.689" x2="10.0154" y2="24.8593">
			<stop  offset="0" style="stop-color:#FF5C34"/>
			<stop  offset="1" style="stop-color:#EB0256"/>
		</linearGradient>
		<path style="fill-rule:evenodd;clip-rule:evenodd;fill:url(#SVGID_00000049203429942674364100000016556226853604266630_);" d="
			M25.4,26.9l-0.8-2.3c1-0.5,1.9-1.3,2.6-2.2c3.3-3.9,2.7-9.7-1.2-13c-0.8-0.7-1.7-1.2-2.6-1.6c3.8,1.3,6.5,4.5,7.1,8.2
			c0,0.2,0.1,0.4,0.1,0.6c0,0,0,0.1,0,0.1c0,0,0,0,0,0.1c0.1,1.4,0,2.8-0.4,4.2C29.4,23.6,27.7,25.6,25.4,26.9z"/>
		<path class="st21" d="M25.4,26.9l-0.8-2.3c1-0.5,1.9-1.3,2.6-2.2c3.3-3.9,2.7-9.7-1.2-13c-0.8-0.7-1.7-1.2-2.6-1.6
			c3.8,1.3,6.5,4.5,7.1,8.2c0,0.2,0.1,0.4,0.1,0.6c0,0,0,0.1,0,0.1c0,0,0,0,0,0.1c0.1,1.4,0,2.8-0.4,4.2
			C29.4,23.6,27.7,25.6,25.4,26.9z"/>
	</g>
</g>
</svg>
