<?xml version="1.0" encoding="utf-8"?>
<!-- Generator: Adobe Illustrator 25.2.1, SVG Export Plug-In . SVG Version: 6.00 Build 0)  -->
<svg version="1.1" id="Capa_1" xmlns="http://www.w3.org/2000/svg" xmlns:xlink="http://www.w3.org/1999/xlink" x="0px" y="0px"
	 width="24px" height="24px" viewBox="0 0 24 24" style="enable-background:new 0 0 24 24;" xml:space="preserve">
<style type="text/css">
	.st0{fill:#FFFFFF;}
	.st1{fill:#26A5E4;}
</style>
<ellipse class="st0" cx="12" cy="12" rx="9" ry="7.6"/>
<path class="st1" d="M11.9,0C5.3,0,0,5.4,0,12s5.4,12,12,12s12-5.4,12-12S18.6,0,11.9,0C12,0,12,0,11.9,0z M16.9,7.2
	c0.1,0,0.3,0,0.5,0.1c0.1,0.1,0.2,0.2,0.2,0.3c0,0.1,0,0.3,0,0.5c-0.2,1.9-1,6.5-1.4,8.6c-0.2,1-0.5,1.3-0.8,1.3
	c-0.7,0.1-1.2-0.5-1.9-0.9c-1.1-0.7-1.7-1.1-2.7-1.8c-1.2-0.8-0.4-1.2,0.3-1.9c0.2-0.2,3.2-3,3.3-3.2c0,0,0-0.1-0.1-0.2
	s-0.2,0-0.2,0c-0.1,0-1.8,1.1-5.1,3.3c-0.5,0.3-0.9,0.5-1.3,0.5c-0.4,0-1.3-0.2-1.9-0.4C5,13.2,4.5,13,4.5,12.6
	c0-0.2,0.3-0.4,0.9-0.7c3.5-1.5,5.8-2.5,7-3C15.8,7.5,16.5,7.2,16.9,7.2z"/>
</svg>
