<svg width="48" height="48" viewBox="0 0 48 48" fill="none" xmlns="http://www.w3.org/2000/svg">
  <!-- Background with rounded corners -->
  <rect width="48" height="48" rx="4" fill="#18BCF2"/>
  
  <!-- Home Assistant logo - original path from SimpleIcons, scaled and centered -->
  <g transform="translate(12, 12)">
    <path fill="#fff" d="m21.8 13.73-8.16-8.68a1.65 1.65 0 0 0-1.2-.53c-.46 0-.9.2-1.22.53L3.07 13.73a1.65 1.65 0 0 0-.5 1.18v7.75c0 .91.74 1.65 1.65 1.65h3.3V17.9c0-.91.74-1.65 1.65-1.65h3.66c.91 0 1.65.74 1.65 1.65v6.41h3.3c.91 0 1.65-.74 1.65-1.65v-7.75c0-.44-.17-.86-.48-1.18zm-9.8 6.56a.94.94 0 1 1 0-1.88.94.94 0 0 1 0 1.88zm2.24-4.03c-.3.32-.7.48-1.2.48s-.9-.16-1.22-.48a1.65 1.65 0 0 1-.48-1.18c0-.46.17-.88.48-1.2.32-.3.72-.47 1.22-.47s.9.16 1.2.48c.32.3.48.73.48 1.18 0 .47-.16.88-.48 1.2zm3.19-2.24a.94.94 0 1 1 0-1.88.94.94 0 0 1 0 1.88z"/>
  </g>
</svg>
