<svg width="48" height="48" viewBox="0 0 48 48" fill="none" xmlns="http://www.w3.org/2000/svg">
  <!-- Background with rounded corners -->
  <rect width="48" height="48" rx="4" fill="#563ACC"/>
  
  <!-- Mastodon logo centered and scaled -->
  <g transform="translate(6, 10) scale(0.65)">
    <path d="M46.9 27.8c-.6 3.1-5.4 6.5-10.9 7.1-2.9.3-5.7.6-8.7.5-4.9-.2-8.8-1.2-8.8-1.2 0 .5 0 .9.1 1.4.6 4.9 4.8 5.2 8.8 5.3 4 .1 7.5-1 7.5-1l.2 3.6s-2.8 1.5-7.7 1.8c-2.7.1-6.2-.1-10.1-1.1C5.6 42.3 3.4 35.7 3.1 29c-.1-2.8 0-5.4 0-7.6 0-9.6 6.3-12.4 6.3-12.4C13 7.2 19.3 6.7 25.9 6.6h.1c6.6.1 13 .6 16.6 2.4 0 0 6.3 2.8 6.3 12.4 0 0 .1 7.1-1 12zM39.1 19.1v11.5h-4.6V19.4c0-2.4-1-3.6-2.9-3.6-2.2 0-3.3 1.4-3.3 4.2v6.1h-4.6v-6.1c0-2.8-1.1-4.2-3.3-4.2-1.9 0-2.9 1.2-2.9 3.6v11.2h-4.6V19.1c0-2.4.6-4.2 1.8-5.6 1.2-1.4 2.9-2.1 4.9-2.1 2.3 0 4.1.9 5.3 2.7l1.1 1.9 1.1-1.9c1.2-1.8 2.9-2.7 5.3-2.7 2 0 3.6.7 4.9 2.1 1.2 1.4 1.8 3.2 1.8 5.6z" fill="white"/>
  </g>
</svg>
