<?xml version="1.0" encoding="UTF-8"?>
<svg width="48" height="48" viewBox="0 0 48 48" xmlns="http://www.w3.org/2000/svg">
  <rect width="48" height="48" rx="8" fill="#563d7c"/>
  <!-- Official Mastodon logo with contrasting background -->
  <g transform="translate(8, 6) scale(0.145)">
    <path fill="#fff" d="M177.50984 80.077v60.94125h-24.14375v-59.15c0-12.46875-5.24625-18.7975-15.74-18.7975-11.6025 0-17.4175 7.5075-17.4175 22.3525v32.37625H96.20734V85.42325c0-14.845-5.81625-22.3525-17.41875-22.3525-10.49375 0-15.74 6.32875-15.74 18.7975v59.15H38.90484V80.077c0-12.455 3.17125-22.3525 9.54125-29.675 6.56875-7.3225 15.17125-11.07625 25.85-11.07625 12.355 0 21.71125 4.74875 27.8975 14.2475l6.01375 10.08125 6.015-10.08125c6.185-9.49875 15.54125-14.2475 27.8975-14.2475 10.6775 0 19.28 3.75375 25.85 11.07625 6.36875 7.3225 9.54 17.22 9.54 29.675"/>
  </g>
</svg>
