<svg width="48" height="48" viewBox="0 0 48 48" fill="none" xmlns="http://www.w3.org/2000/svg">
  <!-- Background with rounded corners -->
  <rect width="48" height="48" rx="4" fill="#563ACC"/>
  
  <!-- Mastodon logo - original path from SimpleIcons, scaled and centered -->
  <g transform="translate(12, 12)">
    <path fill="#fff" d="M23.268 5.313c-.35-2.578-2.617-4.61-5.304-5.004C17.51.242 15.792 0 11.813 0h-.03c-3.98 0-4.835.242-5.288.309C3.882.692 1.496 2.518.917 5.127.64 6.412.61 7.837.661 9.143c.074 1.874.088 3.745.26 5.611.118 1.24.325 2.47.62 3.68.55 2.237 2.777 4.098 4.96 4.857 2.336.792 4.849.923 7.256.38.265-.061.527-.132.786-.213.585-.184 1.27-.39 1.774-.753a.057.057 0 0 0 .023-.043v-1.809a.052.052 0 0 0-.02-.041.053.053 0 0 0-.046-.01 20.282 20.282 0 0 1-4.709.545c-2.73 0-3.463-1.284-3.674-1.818a5.593 5.593 0 0 1-.319-1.433.049.049 0 0 1 .021-.04.051.051 0 0 1 .046-.003 20.109 20.109 0 0 0 4.624.548c.266 0 .532 0 .803-.01.719-.01 1.46-.03 2.19-.087.333-.026.666-.057.995-.096.96-.118 1.903-.281 2.816-.536.025-.007.049-.012.073-.018 1.963-.474 3.662-1.564 4.206-3.146.053-.153.1-.308.144-.465.134-.469.207-.938.265-1.413.041-.337.068-.674.084-1.012.014-.27.018-.54.018-.81v-.034c0-1.027.055-2.052.162-3.073z"/>
  </g>
</svg>
