<svg width="800" height="378" viewBox="0 0 800 378" xmlns="http://www.w3.org/2000/svg">
  <defs>
    <clipPath id="card"><rect x="0.5" y="0.5" width="799" height="377" rx="6"/></clipPath>
  </defs>
  <style>
    .h-title { font: 600 15px -apple-system, BlinkMacSystemFont, 'Segoe UI', 'Noto Sans', Helvetica, Arial, sans-serif; fill: #f0f6fc; }
    .s-title { font: 600 14px -apple-system, BlinkMacSystemFont, 'Segoe UI', 'Noto Sans', Helvetica, Arial, sans-serif; fill: #f0f6fc; }
    .s-sub { font: 400 11px -apple-system, BlinkMacSystemFont, 'Segoe UI', 'Noto Sans', Helvetica, Arial, sans-serif; fill: #9198a1; }
    .m-val { font: 600 22px ui-monospace, SFMono-Regular, 'SF Mono', Menlo, Consolas, 'Liberation Mono', monospace; fill: #f0f6fc; }
    .m-lbl { font: 400 11px -apple-system, BlinkMacSystemFont, 'Segoe UI', 'Noto Sans', Helvetica, Arial, sans-serif; fill: #9198a1; }
    .lg-name { font: 400 13px -apple-system, BlinkMacSystemFont, 'Segoe UI', 'Noto Sans', Helvetica, Arial, sans-serif; fill: #f0f6fc; }
    .lg-pct { font: 500 13px ui-monospace, SFMono-Regular, 'SF Mono', Menlo, Consolas, 'Liberation Mono', monospace; fill: #9198a1; }
    .foot { font: 400 10px ui-monospace, SFMono-Regular, 'SF Mono', Menlo, Consolas, 'Liberation Mono', monospace; fill: #9198a1; }
  </style>
  <rect x="0.5" y="0.5" width="799" height="377" rx="6" fill="#0d1117"/>
  <g clip-path="url(#card)"><rect x="0" y="0" width="800" height="50" fill="#151b23"/></g>
  <line x1="0.5" y1="50" x2="799.5" y2="50" stroke="#3d444d"/>
  <rect x="0.5" y="0.5" width="799" height="377" rx="6" fill="none" stroke="#3d444d"/>
  <text class="h-title" x="22" y="31">GitHub Statistics</text>
  <g transform="translate(22, 82)"><g transform="translate(0, 0)"><text class="m-val" x="0" y="0">25</text><text class="m-lbl" x="0" y="18">Repositories</text></g><g transform="translate(189, 0)"><text class="m-val" x="0" y="0">343</text><text class="m-lbl" x="0" y="18">Stars</text></g><g transform="translate(378, 0)"><text class="m-val" x="0" y="0">90</text><text class="m-lbl" x="0" y="18">Forks</text></g><g transform="translate(567, 0)"><text class="m-val" x="0" y="0">36</text><text class="m-lbl" x="0" y="18">Followers</text></g><g transform="translate(0, 46)"><text class="m-val" x="0" y="0">2,381</text><text class="m-lbl" x="0" y="18">Commits / yr</text></g><g transform="translate(189, 46)"><text class="m-val" x="0" y="0">588</text><text class="m-lbl" x="0" y="18">Pull requests / yr</text></g><g transform="translate(378, 46)"><text class="m-val" x="0" y="0">1,121</text><text class="m-lbl" x="0" y="18">Repo views / 14d</text></g><g transform="translate(567, 46)"><text class="m-val" x="0" y="0">19,414</text><text class="m-lbl" x="0" y="18">Clones / 14d</text></g></g>
  <text class="s-title" x="22" y="182">Most Used Languages</text>
  <text class="s-sub" x="22" y="199">Normalized share across repositories · public + private</text>
  <g transform="translate(22, 216)"><rect x="0.0" y="0" width="239.1" height="14" rx="3" fill="#e16737"/><rect x="241.1" y="0" width="132.2" height="14" rx="3" fill="#3572A5"/><rect x="375.3" y="0" width="76.9" height="14" rx="3" fill="#3D6117"/><rect x="454.2" y="0" width="68.4" height="14" rx="3" fill="#555555"/><rect x="524.6" y="0" width="66.0" height="14" rx="3" fill="#00ADD8"/><rect x="592.6" y="0" width="54.0" height="14" rx="3" fill="#89e051"/><rect x="648.6" y="0" width="53.0" height="14" rx="3" fill="#f34b7d"/><rect x="703.6" y="0" width="50.4" height="14" rx="3" fill="#2b7489"/></g>
  <g transform="translate(22, 256)"><g transform="translate(0, 0)"><circle cx="6" cy="-4" r="6" fill="#e16737"/><text class="lg-name" x="20" y="0">MATLAB</text><text class="lg-pct" x="358" y="0" text-anchor="end">32%</text></g><g transform="translate(0, 25)"><circle cx="6" cy="-4" r="6" fill="#3572A5"/><text class="lg-name" x="20" y="0">Python</text><text class="lg-pct" x="358" y="0" text-anchor="end">18%</text></g><g transform="translate(0, 50)"><circle cx="6" cy="-4" r="6" fill="#3D6117"/><text class="lg-name" x="20" y="0">TeX</text><text class="lg-pct" x="358" y="0" text-anchor="end">10%</text></g><g transform="translate(0, 75)"><circle cx="6" cy="-4" r="6" fill="#555555"/><text class="lg-name" x="20" y="0">C</text><text class="lg-pct" x="358" y="0" text-anchor="end">9%</text></g><g transform="translate(378, 0)"><circle cx="6" cy="-4" r="6" fill="#00ADD8"/><text class="lg-name" x="20" y="0">Go</text><text class="lg-pct" x="358" y="0" text-anchor="end">9%</text></g><g transform="translate(378, 25)"><circle cx="6" cy="-4" r="6" fill="#89e051"/><text class="lg-name" x="20" y="0">Shell</text><text class="lg-pct" x="358" y="0" text-anchor="end">7%</text></g><g transform="translate(378, 50)"><circle cx="6" cy="-4" r="6" fill="#f34b7d"/><text class="lg-name" x="20" y="0">C++</text><text class="lg-pct" x="358" y="0" text-anchor="end">7%</text></g><g transform="translate(378, 75)"><circle cx="6" cy="-4" r="6" fill="#2b7489"/><text class="lg-name" x="20" y="0">TypeScript</text><text class="lg-pct" x="358" y="0" text-anchor="end">7%</text></g></g>
  <text class="foot" x="400" y="367" text-anchor="middle">updated 2026-07-08 14:01 UTC</text>
</svg>