<svg width="800" height="378" viewBox="0 0 800 378" xmlns="http://www.w3.org/2000/svg">
  <defs>
    <clipPath id="card"><rect x="0.5" y="0.5" width="799" height="377" rx="6"/></clipPath>
  </defs>
  <style>
    .h-title { font: 600 15px -apple-system, BlinkMacSystemFont, 'Segoe UI', 'Noto Sans', Helvetica, Arial, sans-serif; fill: #1f2328; }
    .s-title { font: 600 14px -apple-system, BlinkMacSystemFont, 'Segoe UI', 'Noto Sans', Helvetica, Arial, sans-serif; fill: #1f2328; }
    .s-sub { font: 400 11px -apple-system, BlinkMacSystemFont, 'Segoe UI', 'Noto Sans', Helvetica, Arial, sans-serif; fill: #59636e; }
    .m-val { font: 600 22px ui-monospace, SFMono-Regular, 'SF Mono', Menlo, Consolas, 'Liberation Mono', monospace; fill: #1f2328; }
    .m-lbl { font: 400 11px -apple-system, BlinkMacSystemFont, 'Segoe UI', 'Noto Sans', Helvetica, Arial, sans-serif; fill: #59636e; }
    .lg-name { font: 400 13px -apple-system, BlinkMacSystemFont, 'Segoe UI', 'Noto Sans', Helvetica, Arial, sans-serif; fill: #1f2328; }
    .lg-pct { font: 500 13px ui-monospace, SFMono-Regular, 'SF Mono', Menlo, Consolas, 'Liberation Mono', monospace; fill: #59636e; }
    .foot { font: 400 10px ui-monospace, SFMono-Regular, 'SF Mono', Menlo, Consolas, 'Liberation Mono', monospace; fill: #59636e; }
  </style>
  <rect x="0.5" y="0.5" width="799" height="377" rx="6" fill="#ffffff"/>
  <g clip-path="url(#card)"><rect x="0" y="0" width="800" height="50" fill="#f6f8fa"/></g>
  <line x1="0.5" y1="50" x2="799.5" y2="50" stroke="#d1d9e0"/>
  <rect x="0.5" y="0.5" width="799" height="377" rx="6" fill="none" stroke="#d1d9e0"/>
  <text class="h-title" x="22" y="31">GitHub Statistics</text>
  <g transform="translate(22, 82)"><g transform="translate(0, 0)"><text class="m-val" x="0" y="0">24</text><text class="m-lbl" x="0" y="18">Repositories</text></g><g transform="translate(189, 0)"><text class="m-val" x="0" y="0">329</text><text class="m-lbl" x="0" y="18">Stars</text></g><g transform="translate(378, 0)"><text class="m-val" x="0" y="0">90</text><text class="m-lbl" x="0" y="18">Forks</text></g><g transform="translate(567, 0)"><text class="m-val" x="0" y="0">34</text><text class="m-lbl" x="0" y="18">Followers</text></g><g transform="translate(0, 46)"><text class="m-val" x="0" y="0">1,573</text><text class="m-lbl" x="0" y="18">Commits / yr</text></g><g transform="translate(189, 46)"><text class="m-val" x="0" y="0">507</text><text class="m-lbl" x="0" y="18">Pull requests / yr</text></g><g transform="translate(378, 46)"><text class="m-val" x="0" y="0">1,167</text><text class="m-lbl" x="0" y="18">Repo views / 14d</text></g><g transform="translate(567, 46)"><text class="m-val" x="0" y="0">22,247</text><text class="m-lbl" x="0" y="18">Clones / 14d</text></g></g>
  <text class="s-title" x="22" y="182">Most Used Languages</text>
  <text class="s-sub" x="22" y="199">Normalized share across repositories · public + private</text>
  <g transform="translate(22, 216)"><rect x="0.0" y="0" width="228.2" height="14" rx="3" fill="#e16737"/><rect x="230.2" y="0" width="126.3" height="14" rx="3" fill="#3572A5"/><rect x="358.4" y="0" width="86.5" height="14" rx="3" fill="#00ADD8"/><rect x="447.0" y="0" width="73.3" height="14" rx="3" fill="#3D6117"/><rect x="522.3" y="0" width="65.8" height="14" rx="3" fill="#555555"/><rect x="590.0" y="0" width="58.3" height="14" rx="3" fill="#e34c26"/><rect x="650.3" y="0" width="51.1" height="14" rx="3" fill="#89e051"/><rect x="703.4" y="0" width="50.6" height="14" rx="3" fill="#f34b7d"/></g>
  <g transform="translate(22, 256)"><g transform="translate(0, 0)"><circle cx="6" cy="-4" r="6" fill="#e16737"/><text class="lg-name" x="20" y="0">MATLAB</text><text class="lg-pct" x="358" y="0" text-anchor="end">30%</text></g><g transform="translate(0, 25)"><circle cx="6" cy="-4" r="6" fill="#3572A5"/><text class="lg-name" x="20" y="0">Python</text><text class="lg-pct" x="358" y="0" text-anchor="end">17%</text></g><g transform="translate(0, 50)"><circle cx="6" cy="-4" r="6" fill="#00ADD8"/><text class="lg-name" x="20" y="0">Go</text><text class="lg-pct" x="358" y="0" text-anchor="end">12%</text></g><g transform="translate(0, 75)"><circle cx="6" cy="-4" r="6" fill="#3D6117"/><text class="lg-name" x="20" y="0">TeX</text><text class="lg-pct" x="358" y="0" text-anchor="end">10%</text></g><g transform="translate(378, 0)"><circle cx="6" cy="-4" r="6" fill="#555555"/><text class="lg-name" x="20" y="0">C</text><text class="lg-pct" x="358" y="0" text-anchor="end">9%</text></g><g transform="translate(378, 25)"><circle cx="6" cy="-4" r="6" fill="#e34c26"/><text class="lg-name" x="20" y="0">HTML</text><text class="lg-pct" x="358" y="0" text-anchor="end">8%</text></g><g transform="translate(378, 50)"><circle cx="6" cy="-4" r="6" fill="#89e051"/><text class="lg-name" x="20" y="0">Shell</text><text class="lg-pct" x="358" y="0" text-anchor="end">7%</text></g><g transform="translate(378, 75)"><circle cx="6" cy="-4" r="6" fill="#f34b7d"/><text class="lg-name" x="20" y="0">C++</text><text class="lg-pct" x="358" y="0" text-anchor="end">7%</text></g></g>
  <text class="foot" x="400" y="367" text-anchor="middle">updated 2026-07-01 14:31 UTC</text>
</svg>