<svg width="800" height="250" viewBox="0 0 800 250" xmlns="http://www.w3.org/2000/svg">
  <defs>
    <clipPath id="ts-card"><rect x="0.5" y="0.5" width="799" height="249" rx="6"/></clipPath>
  </defs>
  <style>
    .ts-title { font: 600 15px -apple-system, BlinkMacSystemFont, 'Segoe UI', 'Noto Sans', Helvetica, Arial, sans-serif; fill: #1f2328; }
    .ts-cat { font: 600 11px -apple-system, BlinkMacSystemFont, 'Segoe UI', 'Noto Sans', Helvetica, Arial, sans-serif; fill: #59636e; letter-spacing: 0.3px; }
    .ts-label { font: 500 12.5px -apple-system, BlinkMacSystemFont, 'Segoe UI', 'Noto Sans', Helvetica, Arial, sans-serif; fill: #1f2328; }
  </style>
  <rect x="0.5" y="0.5" width="799" height="249" rx="6" fill="#ffffff"/>
  <g clip-path="url(#ts-card)"><rect x="0" y="0" width="800" height="46" fill="#f6f8fa"/></g>
  <line x1="0.5" y1="46" x2="799.5" y2="46" stroke="#d1d9e0"/>
  <rect x="0.5" y="0.5" width="799" height="249" rx="6" fill="none" stroke="#d1d9e0"/>
  <text class="ts-title" x="22" y="29">Tech Stack</text>
  <text class="ts-cat" x="22" y="70">Languages</text><g transform="translate(22, 82)"><rect width="66" height="26" rx="6" fill="#f6f8fa" stroke="#d1d9e0"/><g transform="translate(11, 5.5)"><svg x="0" y="0" width="15" height="15" viewBox="0 0 24 24" fill="#1f2328"><title>C++</title><path d="M22.394 6c-.167-.29-.398-.543-.652-.69L12.926.22c-.509-.294-1.34-.294-1.848 0L2.26 5.31c-.508.293-.923 1.013-.923 1.6v10.18c0 .294.104.62.271.91.167.29.398.543.652.69l8.816 5.09c.508.293 1.34.293 1.848 0l8.816-5.09c.254-.147.485-.4.652-.69.167-.29.27-.616.27-.91V6.91c.003-.294-.1-.62-.268-.91zM12 19.11c-3.92 0-7.109-3.19-7.109-7.11 0-3.92 3.19-7.11 7.11-7.11a7.133 7.133 0 016.156 3.553l-3.076 1.78a3.567 3.567 0 00-3.08-1.78A3.56 3.56 0 008.444 12 3.56 3.56 0 0012 15.555a3.57 3.57 0 003.08-1.778l3.078 1.78A7.135 7.135 0 0112 19.11zm7.11-6.715h-.79v.79h-.79v-.79h-.79v-.79h.79v-.79h.79v.79h.79zm2.962 0h-.79v.79h-.79v-.79h-.79v-.79h.79v-.79h.79v.79h.79z"/></svg></g><text class="ts-label" x="32" y="17">C++</text></g><g transform="translate(96, 82)"><rect width="52" height="26" rx="6" fill="#f6f8fa" stroke="#d1d9e0"/><g transform="translate(11, 5.5)"><svg x="0" y="0" width="15" height="15" viewBox="0 0 24 24" fill="#1f2328"><title>C</title><path d="M16.5921 9.1962s-.354-3.298-3.627-3.39c-3.2741-.09-4.9552 2.474-4.9552 6.14 0 3.6651 1.858 6.5972 5.0451 6.5972 3.184 0 3.5381-3.665 3.5381-3.665l6.1041.365s.36 3.31-2.196 5.836c-2.552 2.5241-5.6901 2.9371-7.8762 2.9201-2.19-.017-5.2261.034-8.1602-2.97-2.938-3.0101-3.436-5.9302-3.436-8.8002 0-2.8701.556-6.6702 4.047-9.5502C7.444.72 9.849 0 12.254 0c10.0422 0 10.7172 9.2602 10.7172 9.2602z"/></svg></g><text class="ts-label" x="32" y="17">C</text></g><g transform="translate(156, 82)"><rect width="87" height="26" rx="6" fill="#f6f8fa" stroke="#d1d9e0"/><g transform="translate(11, 5.5)"><svg x="0" y="0" width="15" height="15" viewBox="0 0 24 24" fill="#1f2328"><title>Python</title><path d="M14.25.18l.9.2.73.26.59.3.45.32.34.34.25.34.16.33.1.3.04.26.02.2-.01.13V8.5l-.05.63-.13.55-.21.46-.26.38-.3.31-.33.25-.35.19-.35.14-.33.1-.3.07-.26.04-.21.02H8.77l-.69.05-.59.14-.5.22-.41.27-.33.32-.27.35-.2.36-.15.37-.1.35-.07.32-.04.27-.02.21v3.06H3.17l-.21-.03-.28-.07-.32-.12-.35-.18-.36-.26-.36-.36-.35-.46-.32-.59-.28-.73-.21-.88-.14-1.05-.05-1.23.06-1.22.16-1.04.24-.87.32-.71.36-.57.4-.44.42-.33.42-.24.4-.16.36-.1.32-.05.24-.01h.16l.06.01h8.16v-.83H6.18l-.01-2.75-.02-.37.05-.34.11-.31.17-.28.25-.26.31-.23.38-.2.44-.18.51-.15.58-.12.64-.1.71-.06.77-.04.84-.02 1.27.05zm-6.3 1.98l-.23.33-.08.41.08.41.23.34.33.22.41.09.41-.09.33-.22.23-.34.08-.41-.08-.41-.23-.33-.33-.22-.41-.09-.41.09zm13.09 3.95l.28.06.32.12.35.18.36.27.36.35.35.47.32.59.28.73.21.88.14 1.04.05 1.23-.06 1.23-.16 1.04-.24.86-.32.71-.36.57-.4.45-.42.33-.42.24-.4.16-.36.09-.32.05-.24.02-.16-.01h-8.22v.82h5.84l.01 2.76.02.36-.05.34-.11.31-.17.29-.25.25-.31.24-.38.2-.44.17-.51.15-.58.13-.64.09-.71.07-.77.04-.84.01-1.27-.04-1.07-.14-.9-.2-.73-.25-.59-.3-.45-.33-.34-.34-.25-.34-.16-.33-.1-.3-.04-.25-.02-.2.01-.13v-5.34l.05-.64.13-.54.21-.46.26-.38.3-.32.33-.24.35-.2.35-.14.33-.1.3-.06.26-.04.21-.02.13-.01h5.84l.69-.05.59-.14.5-.21.41-.28.33-.32.27-.35.2-.36.15-.36.1-.35.07-.32.04-.28.02-.21V6.07h2.09l.14.01zm-6.47 14.25l-.23.33-.08.41.08.41.23.33.33.23.41.08.41-.08.33-.23.23-.33.08-.41-.08-.41-.23-.33-.33-.23-.41-.08-.41.08z"/></svg></g><text class="ts-label" x="32" y="17">Python</text></g><g transform="translate(251, 82)"><rect width="87" height="26" rx="6" fill="#f6f8fa" stroke="#d1d9e0"/><g transform="translate(11, 5.5)"><svg x="0" y="0" width="15" height="15" viewBox="0 0 128 128" fill="#1f2328"><defs><linearGradient id="matlab-original-a" gradientUnits="userSpaceOnUse" x1="16.803" y1="16.631" x2="15.013" y2="22.411" gradientTransform="matrix(4 0 0 -4 0 128)"><stop offset="0" stop-color="#512"/><stop offset=".23" stop-color="#523"/><stop offset=".36" stop-color="#534"/><stop offset=".51" stop-color="#645"/><stop offset=".66" stop-color="#568"/><stop offset=".84" stop-color="#29d"/></linearGradient><linearGradient id="matlab-original-b" gradientUnits="userSpaceOnUse" x1="29.71" y1="18.983" x2="11.71" y2="14.563" gradientTransform="scale(4)"><stop offset=".081" stop-color="#c33"/><stop offset=".189" stop-color="#de5239"/><stop offset=".313" stop-color="#f06e3e"/><stop offset=".421" stop-color="#fa8042"/><stop offset=".5" stop-color="#fe8643"/><stop offset=".58" stop-color="#fa7f42"/><stop offset=".696" stop-color="#ef6c3e"/><stop offset=".833" stop-color="#dc4c37"/><stop offset=".916" stop-color="#cf3633"/></linearGradient></defs><path d="M8 70.2l31.879-12.88a82.62 82.62 0 0110.883-11.8c2.636-1.399 7.597-.641 16.68-11.918 8.796-11 11.597-20.403 15.718-20.403 6.52 0 11.32 14.082 18.602 35.403A461.75 461.75 0 00120 96.48c-7.602-7.082-14.078-14.718-21.48-14.52-6.88.161-14.52 8.321-22.88 18.802C69 109.16 60.2 114.922 56.763 114.8c0 0-8.883-25.121-16.32-29.2a10.563 10.563 0 00-9.563.797L8 70.16zm0 0"/><path d="M79.2 16.078c-2.68 3.602-5.92 10.203-11.76 17.524-9.082 11.277-14 10.52-16.68 11.918a78.673 78.673 0 00-10.882 11.8l13.2 9.64C64.28 51.68 70.28 35.122 74.96 24.399a54.649 54.649 0 014.238-8.32zm0 0"/><path d="M83.2 13.2c-8.72 0-14.68 45.921-46.88 71.562 9.04-1.48 16.88 20.957 20.48 30.039 16-2.723 28.802-33.32 41.72-32.84 7.402.277 13.878 7.437 21.48 14.52C102.64 60 94.52 13.198 83.2 13.198zm0 0"/></svg></g><text class="ts-label" x="32" y="17">MATLAB</text></g><g transform="translate(346, 82)"><rect width="115" height="26" rx="6" fill="#f6f8fa" stroke="#d1d9e0"/><g transform="translate(11, 5.5)"><svg x="0" y="0" width="15" height="15" viewBox="0 0 24 24" fill="#1f2328"><title>JavaScript</title><path d="M0 0h24v24H0V0zm22.034 18.276c-.175-1.095-.888-2.015-3.003-2.873-.736-.345-1.554-.585-1.797-1.14-.091-.33-.105-.51-.046-.705.15-.646.915-.84 1.515-.66.39.12.75.42.976.9 1.034-.676 1.034-.676 1.755-1.125-.27-.42-.404-.601-.586-.78-.63-.705-1.469-1.065-2.834-1.034l-.705.089c-.676.165-1.32.525-1.71 1.005-1.14 1.291-.811 3.541.569 4.471 1.365 1.02 3.361 1.244 3.616 2.205.24 1.17-.87 1.545-1.966 1.41-.811-.18-1.26-.586-1.755-1.336l-1.83 1.051c.21.48.45.689.81 1.109 1.74 1.756 6.09 1.666 6.871-1.004.029-.09.24-.705.074-1.65l.046.067zm-8.983-7.245h-2.248c0 1.938-.009 3.864-.009 5.805 0 1.232.063 2.363-.138 2.711-.33.689-1.18.601-1.566.48-.396-.196-.597-.466-.83-.855-.063-.105-.11-.196-.127-.196l-1.825 1.125c.305.63.75 1.172 1.324 1.517.855.51 2.004.675 3.207.405.783-.226 1.458-.691 1.811-1.411.51-.93.402-2.07.397-3.346.012-2.054 0-4.109 0-6.179l.004-.056z"/></svg></g><text class="ts-label" x="32" y="17">JavaScript</text></g><g transform="translate(469, 82)"><rect width="73" height="26" rx="6" fill="#f6f8fa" stroke="#d1d9e0"/><g transform="translate(11, 5.5)"><svg x="0" y="0" width="15" height="15" viewBox="0 0 24 24" fill="#1f2328">
  <!-- Normalized bash/shell icon 24x24 -->
  <path d="M21.038 4.9L13.463.402A2.875 2.875 0 0 0 12 0a2.89 2.89 0 0 0-1.463.404L2.962 4.903A2.888 2.888 0 0 0 1.5 7.504v8.993c0 1.073.556 2.065 1.462 2.598l7.575 4.503c.45.27.95.402 1.463.402a2.87 2.87 0 0 0 1.463-.402l7.575-4.503A2.884 2.884 0 0 0 22.5 16.497V7.503a2.886 2.886 0 0 0-1.462-2.601zM15.643 18.92l.012.646a.21.21 0 0 1-.11.199l-.384.221a.112.112 0 0 1-.112-.084l-.007-.636a2.155 2.155 0 0 1-.871.084c-.04-.016-.058-.074-.042-.142l.138-.584c.012-.046.036-.092.068-.12a.136.136 0 0 1 .036-.026.064.064 0 0 1 .062-.006c.228.076.52.04.801-.1.357-.18.596-.547.593-.907-.004-.33-.18-.464-.612-.468-.55.002-1.064-.106-1.072-.917-.006-.666.339-1.36.889-1.798l-.006-.652a.21.21 0 0 1 .11-.2l.371-.237a.113.113 0 0 1 .112.086l.006.652a1.68 1.68 0 0 1 .724.088c.046.012.068.076.048.15l-.144.578a.257.257 0 0 1-.066.117.155.155 0 0 1-.038.028.057.057 0 0 1-.056.01 1.29 1.29 0 0 0-.698-.112c-.385.194-.52.53-.518.778.004.297.154.387.68.396.7.012 1.002.317 1.01 1.022.01.69-.36 1.435-.925 1.888zm3.97-1.086a.06.06 0 0 1-.058.145l-1.915 1.165a.05.05 0 0 1-.09-.056v-1.838a.06.06 0 0 1 .086-.05l1.887 1.128a.05.05 0 0 1 .09-.056zm1.316-11.058L13.262 11.21a2.07 2.07 0 0 1-1.554 2.187v8.833c0 .645.261 1.062.66 1.184a2.403 2.403 0 0 1-.398.038 2.35 2.35 0 0 1-1.197-.33L3.227 18.637a2.135 2.135 0 0 1-1.2-2.142V7.503c0-.881.459-1.703 1.2-2.142L10.773.862c.364-.216 1.197-.33 1.197-.33.42 0 .834.114 1.197.33l7.576 4.498c.624.372 1.046 1.012 1.164 1.733-.255-.536-.82-.68-1.481-.295z"/>
</svg></g><text class="ts-label" x="32" y="17">Bash</text></g><text class="ts-cat" x="22" y="132">Frameworks &amp; Tools</text><g transform="translate(22, 144)"><rect width="80" height="26" rx="6" fill="#f6f8fa" stroke="#d1d9e0"/><g transform="translate(11, 5.5)"><svg x="0" y="0" width="15" height="15" viewBox="0 0 24 24" fill="#1f2328"><title>Astro</title><path d="M8.358 20.162c-1.186-1.07-1.532-3.316-1.038-4.944.856 1.026 2.043 1.352 3.272 1.535 1.897.283 3.76.177 5.522-.678.202-.098.388-.229.608-.36.166.473.209.95.151 1.437-.14 1.185-.738 2.1-1.688 2.794-.38.277-.782.525-1.175.787-1.205.804-1.531 1.747-1.078 3.119l.044.148a3.158 3.158 0 0 1-1.407-1.188 3.31 3.31 0 0 1-.544-1.815c-.004-.32-.004-.642-.048-.958-.106-.769-.472-1.113-1.161-1.133-.707-.02-1.267.411-1.415 1.09-.012.053-.028.104-.045.165h.002zm-5.961-4.445s3.24-1.575 6.49-1.575l2.451-7.565c.092-.366.36-.614.662-.614.302 0 .57.248.662.614l2.45 7.565c3.85 0 6.491 1.575 6.491 1.575L16.088.727C15.93.285 15.663 0 15.303 0H8.697c-.36 0-.615.285-.784.727l-5.516 14.99z"/></svg></g><text class="ts-label" x="32" y="17">Astro</text></g><g transform="translate(110, 144)"><rect width="94" height="26" rx="6" fill="#f6f8fa" stroke="#d1d9e0"/><g transform="translate(11, 5.5)"><svg x="0" y="0" width="15" height="15" viewBox="0 0 24 24" fill="#1f2328"><title>Node.js</title><path d="M11.998,24c-0.321,0-0.641-0.084-0.922-0.247l-2.936-1.737c-0.438-0.245-0.224-0.332-0.08-0.383 c0.585-0.203,0.703-0.25,1.328-0.604c0.065-0.037,0.151-0.023,0.218,0.017l2.256,1.339c0.082,0.045,0.197,0.045,0.272,0l8.795-5.076 c0.082-0.047,0.134-0.141,0.134-0.238V6.921c0-0.099-0.053-0.192-0.137-0.242l-8.791-5.072c-0.081-0.047-0.189-0.047-0.271,0 L3.075,6.68C2.99,6.729,2.936,6.825,2.936,6.921v10.15c0,0.097,0.054,0.189,0.139,0.235l2.409,1.392 c1.307,0.654,2.108-0.116,2.108-0.89V7.787c0-0.142,0.114-0.253,0.256-0.253h1.115c0.139,0,0.255,0.112,0.255,0.253v10.021 c0,1.745-0.95,2.745-2.604,2.745c-0.508,0-0.909,0-2.026-0.551L2.28,18.675c-0.57-0.329-0.922-0.945-0.922-1.604V6.921 c0-0.659,0.353-1.275,0.922-1.603l8.795-5.082c0.557-0.315,1.296-0.315,1.848,0l8.794,5.082c0.57,0.329,0.924,0.944,0.924,1.603 v10.15c0,0.659-0.354,1.273-0.924,1.604l-8.794,5.078C12.643,23.916,12.324,24,11.998,24z M19.099,13.993 c0-1.9-1.284-2.406-3.987-2.763c-2.731-0.361-3.009-0.548-3.009-1.187c0-0.528,0.235-1.233,2.258-1.233 c1.807,0,2.473,0.389,2.747,1.607c0.024,0.115,0.129,0.199,0.247,0.199h1.141c0.071,0,0.138-0.031,0.186-0.081 c0.048-0.054,0.074-0.123,0.067-0.196c-0.177-2.098-1.571-3.076-4.388-3.076c-2.508,0-4.004,1.058-4.004,2.833 c0,1.925,1.488,2.457,3.895,2.695c2.88,0.282,3.103,0.703,3.103,1.269c0,0.983-0.789,1.402-2.642,1.402 c-2.327,0-2.839-0.584-3.011-1.742c-0.02-0.124-0.126-0.215-0.253-0.215h-1.137c-0.141,0-0.254,0.112-0.254,0.253 c0,1.482,0.806,3.248,4.655,3.248C17.501,17.007,19.099,15.91,19.099,13.993z"/></svg></g><text class="ts-label" x="32" y="17">Node.js</text></g><g transform="translate(212, 144)"><rect width="87" height="26" rx="6" fill="#f6f8fa" stroke="#d1d9e0"/><g transform="translate(11, 5.5)"><svg x="0" y="0" width="15" height="15" viewBox="0 0 24 24" fill="#1f2328"><title>Docker</title><path d="M13.983 11.078h2.119a.186.186 0 00.186-.185V9.006a.186.186 0 00-.186-.186h-2.119a.185.185 0 00-.185.185v1.888c0 .102.083.185.185.185m-2.954-5.43h2.118a.186.186 0 00.186-.186V3.574a.186.186 0 00-.186-.185h-2.118a.185.185 0 00-.185.185v1.888c0 .102.082.185.185.185m0 2.716h2.118a.187.187 0 00.186-.186V6.29a.186.186 0 00-.186-.185h-2.118a.185.185 0 00-.185.185v1.887c0 .102.082.185.185.186m-2.93 0h2.12a.186.186 0 00.184-.186V6.29a.185.185 0 00-.185-.185H8.1a.185.185 0 00-.185.185v1.887c0 .102.083.185.185.186m-2.964 0h2.119a.186.186 0 00.185-.186V6.29a.185.185 0 00-.185-.185H5.136a.186.186 0 00-.186.185v1.887c0 .102.084.185.186.186m5.893 2.715h2.118a.186.186 0 00.186-.185V9.006a.186.186 0 00-.186-.186h-2.118a.185.185 0 00-.185.185v1.888c0 .102.082.185.185.185m-2.93 0h2.12a.185.185 0 00.184-.185V9.006a.185.185 0 00-.184-.186h-2.12a.185.185 0 00-.184.185v1.888c0 .102.083.185.185.185m-2.964 0h2.119a.185.185 0 00.185-.185V9.006a.185.185 0 00-.184-.186h-2.12a.186.186 0 00-.186.186v1.887c0 .102.084.185.186.185m-2.92 0h2.12a.185.185 0 00.184-.185V9.006a.185.185 0 00-.184-.186h-2.12a.185.185 0 00-.184.185v1.888c0 .102.082.185.185.185M23.763 9.89c-.065-.051-.672-.51-1.954-.51-.338.001-.676.03-1.01.087-.248-1.7-1.653-2.53-1.716-2.566l-.344-.199-.226.327c-.284.438-.49.922-.612 1.43-.23.97-.09 1.882.403 2.661-.595.332-1.55.413-1.744.42H.751a.751.751 0 00-.75.748 11.376 11.376 0 00.692 4.062c.545 1.428 1.355 2.48 2.41 3.124 1.18.723 3.1 1.137 5.275 1.137.983.003 1.963-.086 2.93-.266a12.248 12.248 0 003.823-1.389c.98-.567 1.86-1.288 2.61-2.136 1.252-1.418 1.998-2.997 2.553-4.4h.221c1.372 0 2.215-.549 2.68-1.009.309-.293.55-.65.707-1.046l.098-.288Z"/></svg></g><text class="ts-label" x="32" y="17">Docker</text></g><g transform="translate(307, 144)"><rect width="80" height="26" rx="6" fill="#f6f8fa" stroke="#d1d9e0"/><g transform="translate(11, 5.5)"><svg x="0" y="0" width="15" height="15" viewBox="0 0 24 24" fill="#1f2328"><title>NGINX</title><path d="M12 0L1.605 6v12L12 24l10.395-6V6L12 0zm6 16.59c0 .705-.646 1.29-1.529 1.29-.631 0-1.351-.255-1.801-.81l-6-7.141v6.66c0 .721-.57 1.29-1.274 1.29H7.32c-.721 0-1.29-.6-1.29-1.29V7.41c0-.705.63-1.29 1.5-1.29.646 0 1.38.255 1.83.81l5.97 7.141V7.41c0-.721.6-1.29 1.29-1.29h.075c.72 0 1.29.6 1.29 1.29v9.18H18z"/></svg></g><text class="ts-label" x="32" y="17">Nginx</text></g><g transform="translate(395, 144)"><rect width="80" height="26" rx="6" fill="#f6f8fa" stroke="#d1d9e0"/><g transform="translate(11, 5.5)"><svg x="0" y="0" width="15" height="15" viewBox="0 0 24 24" fill="#1f2328"><title>Linux</title><path d="M12.504 0c-.155 0-.315.008-.48.021-4.226.333-3.105 4.807-3.17 6.298-.076 1.092-.3 1.953-1.05 3.02-.885 1.051-2.127 2.75-2.716 4.521-.278.832-.41 1.684-.287 2.489a.424.424 0 00-.11.135c-.26.268-.45.6-.663.839-.199.199-.485.267-.797.4-.313.136-.658.269-.864.68-.09.189-.136.394-.132.602 0 .199.027.4.055.536.058.399.116.728.04.97-.249.68-.28 1.145-.106 1.484.174.334.535.47.94.601.81.2 1.91.135 2.774.6.926.466 1.866.67 2.616.47.526-.116.97-.464 1.208-.946.587-.003 1.23-.269 2.26-.334.699-.058 1.574.267 2.577.2.025.134.063.198.114.333l.003.003c.391.778 1.113 1.132 1.884 1.071.771-.06 1.592-.536 2.257-1.306.631-.765 1.683-1.084 2.378-1.503.348-.199.629-.469.649-.853.023-.4-.2-.811-.714-1.376v-.097l-.003-.003c-.17-.2-.25-.535-.338-.926-.085-.401-.182-.786-.492-1.046h-.003c-.059-.054-.123-.067-.188-.135a.357.357 0 00-.19-.064c.431-1.278.264-2.55-.173-3.694-.533-1.41-1.465-2.638-2.175-3.483-.796-1.005-1.576-1.957-1.56-3.368.026-2.152.236-6.133-3.544-6.139zm.529 3.405h.013c.213 0 .396.062.584.198.19.135.33.332.438.533.105.259.158.459.166.724 0-.02.006-.04.006-.06v.105a.086.086 0 01-.004-.021l-.004-.024a1.807 1.807 0 01-.15.706.953.953 0 01-.213.335.71.71 0 00-.088-.042c-.104-.045-.198-.064-.284-.133a1.312 1.312 0 00-.22-.066c.05-.06.146-.133.183-.198.053-.128.082-.264.088-.402v-.02a1.21 1.21 0 00-.061-.4c-.045-.134-.101-.2-.183-.333-.084-.066-.167-.132-.267-.132h-.016c-.093 0-.176.03-.262.132a.8.8 0 00-.205.334 1.18 1.18 0 00-.09.4v.019c.002.089.008.179.02.267-.193-.067-.438-.135-.607-.202a1.635 1.635 0 01-.018-.2v-.02a1.772 1.772 0 01.15-.768c.082-.22.232-.406.43-.533a.985.985 0 01.594-.2zm-2.962.059h.036c.142 0 .27.048.399.135.146.129.264.288.344.465.09.199.14.4.153.667v.004c.007.134.006.2-.002.266v.08c-.03.007-.056.018-.083.024-.152.055-.274.135-.393.2.012-.09.013-.18.003-.267v-.015c-.012-.133-.04-.2-.082-.333a.613.613 0 00-.166-.267.248.248 0 00-.183-.064h-.021c-.071.006-.13.04-.186.132a.552.552 0 00-.12.27.944.944 0 00-.023.33v.015c.012.135.037.2.08.334.046.134.098.2.166.268.01.009.02.018.034.024-.07.057-.117.07-.176.136a.304.304 0 01-.131.068 2.62 2.62 0 01-.275-.402 1.772 1.772 0 01-.155-.667 1.759 1.759 0 01.08-.668 1.43 1.43 0 01.283-.535c.128-.133.26-.2.418-.2zm1.37 1.706c.332 0 .733.065 1.216.399.293.2.523.269 1.052.468h.003c.255.136.405.266.478.399v-.131a.571.571 0 01.016.47c-.123.31-.516.643-1.063.842v.002c-.268.135-.501.333-.775.465-.276.135-.588.292-1.012.267a1.139 1.139 0 01-.448-.067 3.566 3.566 0 01-.322-.198c-.195-.135-.363-.332-.612-.465v-.005h-.005c-.4-.246-.616-.512-.686-.71-.07-.268-.005-.47.193-.6.224-.135.38-.271.483-.336.104-.074.143-.102.176-.131h.002v-.003c.169-.202.436-.47.839-.601.139-.036.294-.065.466-.065zm2.8 2.142c.358 1.417 1.196 3.475 1.735 4.473.286.534.855 1.659 1.102 3.024.156-.005.33.018.513.064.646-1.671-.546-3.467-1.089-3.966-.22-.2-.232-.335-.123-.335.59.534 1.365 1.572 1.646 2.757.13.535.16 1.104.021 1.67.067.028.135.06.205.067 1.032.534 1.413.938 1.23 1.537v-.043c-.06-.003-.12 0-.18 0h-.016c.151-.467-.182-.825-1.065-1.224-.915-.4-1.646-.336-1.77.465-.008.043-.013.066-.018.135-.068.023-.139.053-.209.064-.43.268-.662.669-.793 1.187-.13.533-.17 1.156-.205 1.869v.003c-.02.334-.17.838-.319 1.35-1.5 1.072-3.58 1.538-5.348.334a2.645 2.645 0 00-.402-.533 1.45 1.45 0 00-.275-.333c.182 0 .338-.03.465-.067a.615.615 0 00.314-.334c.108-.267 0-.697-.345-1.163-.345-.467-.931-.995-1.788-1.521-.63-.4-.986-.87-1.15-1.396-.165-.534-.143-1.085-.015-1.645.245-1.07.873-2.11 1.274-2.763.107-.065.037.135-.408.974-.396.751-1.14 2.497-.122 3.854a8.123 8.123 0 01.647-2.876c.564-1.278 1.743-3.504 1.836-5.268.048.036.217.135.289.202.218.133.38.333.59.465.21.201.477.335.876.335.039.003.075.006.11.006.412 0 .73-.134.997-.268.29-.134.52-.334.74-.4h.005c.467-.135.835-.402 1.044-.7zm2.185 8.958c.037.6.343 1.245.882 1.377.588.134 1.434-.333 1.791-.765l.211-.01c.315-.007.577.01.847.268l.003.003c.208.199.305.53.391.876.085.4.154.78.409 1.066.486.527.645.906.636 1.14l.003-.007v.018l-.003-.012c-.015.262-.185.396-.498.595-.63.401-1.746.712-2.457 1.57-.618.737-1.37 1.14-2.036 1.191-.664.053-1.237-.2-1.574-.898l-.005-.003c-.21-.4-.12-1.025.056-1.69.176-.668.428-1.344.463-1.897.037-.714.076-1.335.195-1.814.12-.465.308-.797.641-.984l.045-.022zm-10.814.049h.01c.053 0 .105.005.157.014.376.055.706.333 1.023.752l.91 1.664.003.003c.243.533.754 1.064 1.189 1.637.434.598.77 1.131.729 1.57v.006c-.057.744-.48 1.148-1.125 1.294-.645.135-1.52.002-2.395-.464-.968-.536-2.118-.469-2.857-.602-.369-.066-.61-.2-.723-.4-.11-.2-.113-.602.123-1.23v-.004l.002-.003c.117-.334.03-.752-.027-1.118-.055-.401-.083-.71.043-.94.16-.334.396-.4.69-.533.294-.135.64-.202.915-.47h.002v-.002c.256-.268.445-.601.668-.838.19-.201.38-.336.663-.336zm7.159-9.074c-.435.201-.945.535-1.488.535-.542 0-.97-.267-1.28-.466-.154-.134-.28-.268-.373-.335-.164-.134-.144-.333-.074-.333.109.016.129.134.199.2.096.066.215.2.36.333.292.2.68.467 1.167.467.485 0 1.053-.267 1.398-.466.195-.135.445-.334.648-.467.156-.136.149-.267.279-.267.128.016.034.134-.147.332a8.097 8.097 0 01-.69.468zm-1.082-1.583V5.64c-.006-.02.013-.042.029-.05.074-.043.18-.027.26.004.063 0 .16.067.15.135-.006.049-.085.066-.135.066-.055 0-.092-.043-.141-.068-.052-.018-.146-.008-.163-.065zm-.551 0c-.02.058-.113.049-.166.066-.047.025-.086.068-.14.068-.05 0-.13-.02-.136-.068-.01-.066.088-.133.15-.133.08-.031.184-.047.259-.005.019.009.036.03.03.05v.02h.003z"/></svg></g><text class="ts-label" x="32" y="17">Linux</text></g><g transform="translate(483, 144)"><rect width="66" height="26" rx="6" fill="#f6f8fa" stroke="#d1d9e0"/><g transform="translate(11, 5.5)"><svg x="0" y="0" width="15" height="15" viewBox="0 0 24 24" fill="#1f2328"><title>Git</title><path d="M23.546 10.93L13.067.452c-.604-.603-1.582-.603-2.188 0L8.708 2.627l2.76 2.76c.645-.215 1.379-.07 1.889.441.516.515.658 1.258.438 1.9l2.658 2.66c.645-.223 1.387-.078 1.9.435.721.72.721 1.884 0 2.604-.719.719-1.881.719-2.6 0-.539-.541-.674-1.337-.404-1.996L12.86 8.955v6.525c.176.086.342.203.488.348.713.721.713 1.883 0 2.6-.719.721-1.889.721-2.609 0-.719-.719-.719-1.879 0-2.598.182-.18.387-.316.605-.406V8.835c-.217-.091-.424-.222-.6-.401-.545-.545-.676-1.342-.396-2.009L7.636 3.7.45 10.881c-.6.605-.6 1.584 0 2.189l10.48 10.477c.604.604 1.582.604 2.186 0l10.43-10.43c.605-.603.605-1.582 0-2.187"/></svg></g><text class="ts-label" x="32" y="17">Git</text></g><text class="ts-cat" x="22" y="194">Infrastructure &amp; Services</text><g transform="translate(22, 206)"><rect width="101" height="26" rx="6" fill="#f6f8fa" stroke="#d1d9e0"/><g transform="translate(11, 5.5)"><svg x="0" y="0" width="15" height="15" viewBox="0 0 48 48" fill="#1f2328">
  
  <!-- Official MikroTik logo centered and scaled -->
  <g transform="translate(7, 7) scale(0.82)">
    <path d="M41.83,13.83c0-1.77-.96-3.4-2.5-4.26L23.3.62c-1.48-.83-3.28-.83-4.76,0L2.5,9.57c-1.54.86-2.5,2.49-2.5,4.26v17.08c0,1.78.97,3.42,2.53,4.28l16.04,8.82c1.46.81,3.24.81,4.7,0l16.04-8.82c1.56-.86,2.53-2.5,2.53-4.28V13.83ZM12.03,30.78c0,.4-.43.65-.78.46l-2.68-1.48c-.56-.31-.9-.89-.9-1.53v-8.07c0-.4.43-.65.78-.46l2.95,1.63c.39.21.63.62.63,1.07v8.38ZM34.16,28.19c0,.63-.34,1.22-.9,1.53l-2.68,1.48c-.35.19-.78-.06-.78-.46v-10.32c0-.4-.43-.65-.78-.46l-4.95,2.73c-.56.31-.9.89-.9,1.53v10.55c0,.32-.17.61-.45.76l-1.01.56c-.52.29-1.16.29-1.69,0l-.94-.52c-.28-.15-.45-.45-.45-.76v-10.66c0-.63-.34-1.22-.9-1.53l-9.81-5.42c-.17-.09-.27-.27-.27-.46v-.42c0-.63.34-1.22.9-1.53l1.4-.77c.52-.29,1.16-.29,1.69,0l8.48,4.69c.52.29,1.16.29,1.69,0l3.81-2.11c.36-.2.36-.72,0-.92l-8.51-4.7c-.36-.2-.36-.72,0-.92l2.9-1.6c.52-.29,1.16-.29,1.69,0l11.55,6.38c.56.31.9.89.9,1.53v11.81Z"/>
  </g>
</svg></g><text class="ts-label" x="32" y="17">MikroTik</text></g><g transform="translate(131, 206)"><rect width="87" height="26" rx="6" fill="#f6f8fa" stroke="#d1d9e0"/><g transform="translate(11, 5.5)"><svg x="0" y="0" width="15" height="15" viewBox="0 0 48 48" fill="#1f2328">
  
  <!-- Official Matrix logo centered and scaled -->
  <g transform="translate(12, 12) scale(1)">
    <path d="M.632.55v22.9H2.28V24H0V0h2.28v.55zm7.043 7.26v1.157h.033c.309-.443.683-.784 1.117-1.024.433-.245.936-.365 1.5-.365.54 0 1.033.107 1.481.314.448.208.785.582 1.02 1.108.254-.374.6-.706 1.034-.992.434-.287.95-.43 1.546-.43.453 0 .872.056 1.26.167.388.11.716.286.993.53.276.245.489.559.646.951.152.392.23.863.23 1.417v5.728h-2.349V11.52c0-.286-.01-.559-.032-.812a1.755 1.755 0 0 0-.18-.66 1.106 1.106 0 0 0-.438-.448c-.194-.11-.457-.166-.785-.166-.332 0-.6.064-.803.189a1.38 1.38 0 0 0-.48.499 1.946 1.946 0 0 0-.231.696 5.56 5.56 0 0 0-.06.785v4.768h-2.35v-4.8c0-.254-.004-.503-.018-.752a2.074 2.074 0 0 0-.143-.688 1.052 1.052 0 0 0-.415-.503c-.194-.125-.476-.19-.854-.19-.111 0-.259.024-.439.074-.18.051-.36.143-.53.282-.171.138-.319.337-.439.595-.12.259-.18.6-.18 1.02v4.966H5.46V7.81zm15.693 15.64V.55H21.72V0H24v24h-2.28v-.55z"/>
  </g>
</svg></g><text class="ts-label" x="32" y="17">Matrix</text></g><g transform="translate(226, 206)"><rect width="101" height="26" rx="6" fill="#f6f8fa" stroke="#d1d9e0"/><g transform="translate(11, 5.5)"><svg x="0" y="0" width="15" height="15" viewBox="0 0 48 48" fill="#1f2328">
  <!-- Background -->
  
  
  <!-- Original Mastodon logo with ORIGINAL colors intact -->
  <svg x="6" y="4" width="36" height="38.6" viewBox="0 0 216.4144 232.00976">
    <path d="M211.80734 139.0875c-3.18125 16.36625-28.4925 34.2775-57.5625 37.74875-15.15875 1.80875-30.08375 3.47125-45.99875 2.74125-26.0275-1.1925-46.565-6.2125-46.565-6.2125 0 2.53375.15625 4.94625.46875 7.2025 3.38375 25.68625 25.47 27.225 46.39125 27.9425 21.11625.7225 39.91875-5.20625 39.91875-5.20625l.8675 19.09s-14.77 7.93125-41.08125 9.39c-14.50875.7975-32.52375-.365-53.50625-5.91875C9.23234 213.82 1.40609 165.31125.20859 116.09125c-.365-14.61375-.14-28.39375-.14-39.91875 0-50.33 32.97625-65.0825 32.97625-65.0825C49.67234 3.45375 78.20359.2425 107.86484 0h.72875c29.66125.2425 58.21125 3.45375 74.8375 11.09 0 0 32.975 14.7525 32.975 65.0825 0 0 .41375 37.13375-4.59875 62.915"/>
    <path d="M177.50984 80.077v60.94125h-24.14375v-59.15c0-12.46875-5.24625-18.7975-15.74-18.7975-11.6025 0-17.4175 7.5075-17.4175 22.3525v32.37625H96.20734V85.42325c0-14.845-5.81625-22.3525-17.41875-22.3525-10.49375 0-15.74 6.32875-15.74 18.7975v59.15H38.90484V80.077c0-12.455 3.17125-22.3525 9.54125-29.675 6.56875-7.3225 15.17125-11.07625 25.85-11.07625 12.355 0 21.71125 4.74875 27.8975 14.2475l6.01375 10.08125 6.015-10.08125c6.185-9.49875 15.54125-14.2475 27.8975-14.2475 10.6775 0 19.28 3.75375 25.85 11.07625 6.36875 7.3225 9.54 17.22 9.54 29.675"/>
  </svg>
</svg></g><text class="ts-label" x="32" y="17">Mastodon</text></g><g transform="translate(335, 206)"><rect width="143" height="26" rx="6" fill="#f6f8fa" stroke="#d1d9e0"/><g transform="translate(11, 5.5)"><svg x="0" y="0" width="15" height="15" viewBox="0 0 48 48" fill="#1f2328">
  <!-- Background -->
  
  
  <!-- Original Home Assistant logo with ORIGINAL colors intact -->
  <svg x="4" y="4" width="40" height="40" viewBox="0 0 400 400">
    <path d="M320 301.762C320 310.012 313.25 316.762 305 316.762H95C86.75 316.762 80 310.012 80 301.762V211.762C80 203.512 84.77 191.993 90.61 186.153L189.39 87.3725C195.22 81.5425 204.77 81.5425 210.6 87.3725L309.39 186.162C315.22 191.992 320 203.522 320 211.772V301.772V301.762Z"/>
    <path d="M309.39 186.153L210.61 87.3725C204.78 81.5425 195.23 81.5425 189.4 87.3725L90.61 186.153C84.78 191.983 80 203.512 80 211.762V301.762C80 310.012 86.75 316.762 95 316.762H187.27L146.64 276.132C144.55 276.852 142.32 277.262 140 277.262C128.7 277.262 119.5 268.062 119.5 256.762C119.5 245.462 128.7 236.262 140 236.262C151.3 236.262 160.5 245.462 160.5 256.762C160.5 259.092 160.09 261.322 159.37 263.412L191 295.042V179.162C184.2 175.822 179.5 168.842 179.5 160.772C179.5 149.472 188.7 140.272 200 140.272C211.3 140.272 220.5 149.472 220.5 160.772C220.5 168.842 215.8 175.822 209 179.162V260.432L240.46 228.972C239.84 227.012 239.5 224.932 239.5 222.772C239.5 211.472 248.7 202.272 260 202.272C271.3 202.272 280.5 211.472 280.5 222.772C280.5 234.072 271.3 243.272 260 243.272C257.5 243.272 255.12 242.802 252.91 241.982L209 285.892V316.772H305C313.25 316.772 320 310.022 320 301.772V211.772C320 203.522 315.23 192.002 309.39 186.162V186.153Z"/>
  </svg>
</svg></g><text class="ts-label" x="32" y="17">Home Assistant</text></g><g transform="translate(486, 206)"><rect width="115" height="26" rx="6" fill="#f6f8fa" stroke="#d1d9e0"/><g transform="translate(11, 5.5)"><svg x="0" y="0" width="15" height="15" viewBox="0 0 48 48" fill="#1f2328">
  
  <!-- Official Meshtastic logo scaled and centered -->
  <g transform="translate(4, 12) scale(0.4)">
    <g transform="matrix(0.802386,0,0,0.460028,-421.748,-122.127)">
        <g transform="matrix(0.579082,0,0,1.01004,460.975,-39.6867)">
            <path d="M250.908,330.267L193.126,415.005L180.938,406.694L244.802,313.037C246.174,311.024 248.453,309.819 250.889,309.816C253.326,309.814 255.606,311.015 256.982,313.026L320.994,406.536L308.821,414.869L250.908,330.267Z"/>
        </g>
        <g transform="matrix(0.582378,0,0,1.01579,485.019,-211.182)">
            <path d="M87.642,581.398L154.757,482.977L142.638,474.713L75.523,573.134L87.642,581.398Z"/>
        </g>
    </g>
  </g>
</svg></g><text class="ts-label" x="32" y="17">Meshtastic</text></g>
</svg>