<svg width="194" height="36" viewBox="0 0 194 36" xmlns="http://www.w3.org/2000/svg">
  <style>
    .v-label { font: 400 13px -apple-system, BlinkMacSystemFont, 'Segoe UI', 'Noto Sans', Helvetica, Arial, sans-serif; fill: #9198a1; }
    .v-num { font: 600 13px ui-monospace, SFMono-Regular, 'SF Mono', Menlo, Consolas, 'Liberation Mono', monospace; fill: #f0f6fc; }
  </style>
  <rect x="0.5" y="0.5" width="193" height="35" rx="6" fill="#151b23" stroke="#3d444d"/>
  <g transform="translate(14, 10)"><svg width="16" height="16" viewBox="0 0 16 16" fill="#4493f8"><path d="M8 2c1.981 0 3.671.992 4.933 2.078 1.27 1.091 2.187 2.345 2.637 3.023a1.62 1.62 0 0 1 0 1.798c-.45.678-1.367 1.932-2.637 3.023C11.67 13.008 9.981 14 8 14c-1.981 0-3.671-.992-4.933-2.078C1.797 10.83.88 9.576.43 8.898a1.62 1.62 0 0 1 0-1.798c.45-.677 1.367-1.931 2.637-3.022C4.329 2.992 6.019 2 8 2Zm0 1.5c-1.473 0-2.825.742-3.955 1.715-1.124.967-1.954 2.096-2.366 2.717a.12.12 0 0 0 0 .136c.412.621 1.242 1.75 2.366 2.717C5.175 11.758 6.527 12.5 8 12.5c1.473 0 2.825-.742 3.955-1.715 1.124-.967 1.954-2.096 2.366-2.717a.12.12 0 0 0 0-.136c-.412-.621-1.242-1.75-2.366-2.717C10.825 4.242 9.473 3.5 8 3.5ZM8 10a2 2 0 1 1-.001-3.999A2 2 0 0 1 8 10Z"/></svg></g>
  <text class="v-label" x="38" y="23">Profile views</text>
  <text class="v-num" x="139" y="23">1,315</text>
</svg>