<?xml version="1.0" encoding="UTF-8"?>
<svg viewBox="0 0 24 24" xmlns="http://www.w3.org/2000/svg">
  <!-- Normalized bash/shell icon 24x24 -->
  <path fill="#293138" d="M21.038 4.9L13.463.402A2.875 2.875 0 0 0 12 0a2.89 2.89 0 0 0-1.463.404L2.962 4.903A2.888 2.888 0 0 0 1.5 7.504v8.993c0 1.073.556 2.065 1.462 2.598l7.575 4.503c.45.27.95.402 1.463.402a2.87 2.87 0 0 0 1.463-.402l7.575-4.503A2.884 2.884 0 0 0 22.5 16.497V7.503a2.886 2.886 0 0 0-1.462-2.601zM15.643 18.92l.012.646a.21.21 0 0 1-.11.199l-.384.221a.112.112 0 0 1-.112-.084l-.007-.636a2.155 2.155 0 0 1-.871.084c-.04-.016-.058-.074-.042-.142l.138-.584c.012-.046.036-.092.068-.12a.136.136 0 0 1 .036-.026.064.064 0 0 1 .062-.006c.228.076.52.04.801-.1.357-.18.596-.547.593-.907-.004-.33-.18-.464-.612-.468-.55.002-1.064-.106-1.072-.917-.006-.666.339-1.36.889-1.798l-.006-.652a.21.21 0 0 1 .11-.2l.371-.237a.113.113 0 0 1 .112.086l.006.652a1.68 1.68 0 0 1 .724.088c.046.012.068.076.048.15l-.144.578a.257.257 0 0 1-.066.117.155.155 0 0 1-.038.028.057.057 0 0 1-.056.01 1.29 1.29 0 0 0-.698-.112c-.385.194-.52.53-.518.778.004.297.154.387.68.396.7.012 1.002.317 1.01 1.022.01.69-.36 1.435-.925 1.888zm3.97-1.086a.06.06 0 0 1-.058.145l-1.915 1.165a.05.05 0 0 1-.09-.056v-1.838a.06.06 0 0 1 .086-.05l1.887 1.128a.05.05 0 0 1 .09-.056zm1.316-11.058L13.262 11.21a2.07 2.07 0 0 1-1.554 2.187v8.833c0 .645.261 1.062.66 1.184a2.403 2.403 0 0 1-.398.038 2.35 2.35 0 0 1-1.197-.33L3.227 18.637a2.135 2.135 0 0 1-1.2-2.142V7.503c0-.881.459-1.703 1.2-2.142L10.773.862c.364-.216 1.197-.33 1.197-.33.42 0 .834.114 1.197.33l7.576 4.498c.624.372 1.046 1.012 1.164 1.733-.255-.536-.82-.68-1.481-.295z"/>
</svg>
