<?xml version="1.0" encoding="UTF-8"?>
<svg viewBox="0 0 24 24" xmlns="http://www.w3.org/2000/svg">
  <!-- Normalized MATLAB B&W logo 24x24 -->
  <path d="M23.97 17.2c-1.35-3.4-2.46-6.88-3.75-10.3-.57-1.46-1.12-2.93-1.9-4.29-.31-.49-.6-1.03-1.11-1.34a.74.74 0 0 0-.41-.11c-.24.01-.47.11-.65.26-.68.54-1.08 1.32-1.53 2.03-.79 1.33-1.63 2.73-2.96 3.59-.62.44-1.44.49-2.04.96-.82.62-1.38 1.5-2.06 2.26-.15.18-.39.26-.6.36C4.01 11.32 2 12.15 0 13c1.69 1.31 3.49 2.47 5.21 3.73.47-.09.95-.29 1.43-.2.77.24 1.23.98 1.58 1.66.72 1.48 1.24 3.03 1.82 4.56.97-.07 1.85-.57 2.6-1.16 1.45-1.18 2.56-2.69 3.77-4.10.58-.61 1.18-1.34 2.05-1.51.88-.21 1.83.1 2.49.71.92.82 1.74 1.77 2.81 2.40-.14-.71-.49-1.35-.75-2.02zm-16.05-5.35c-.85.5-1.75.92-2.63 1.35-1.38-.93-2.74-1.91-4.10-2.87 1.84-.8 3.7-1.55 5.56-2.3.88.69 1.79 1.34 2.67 2.03-.42.66-.91 1.28-1.5 1.79zm1.89-2.31c-.81-.59-1.57-1.21-2.36-1.83.55-.75 1.16-1.48 1.88-2.08.48-.31 1.07-.39 1.57-.67 1.18-.59 1.99-1.67 2.76-2.71-.99 2.57-2.04 5.14-3.59 7.42l-.26-.13z"/>
</svg>
